<svg width="23" height="22" viewBox="0 0 23 22" fill="none" xmlns="http://www.w3.org/2000/svg">
<path fill-rule="evenodd" clip-rule="evenodd" d="M15.459 8C15.459 9.06087 15.0376 10.0783 14.2874 10.8284C13.5373 11.5786 12.5199 12 11.459 12C10.3981 12 9.3807 11.5786 8.63056 10.8284C7.88041 10.0783 7.45898 9.06087 7.45898 8C7.45898 6.93913 7.88041 5.92172 8.63056 5.17157C9.3807 4.42143 10.3981 4 11.459 4C12.5199 4 13.5373 4.42143 14.2874 5.17157C15.0376 5.92172 15.459 6.93913 15.459 8ZM13.459 8C13.459 8.53043 13.2483 9.03914 12.8732 9.41421C12.4981 9.78929 11.9894 10 11.459 10C10.9286 10 10.4198 9.78929 10.0448 9.41421C9.6697 9.03914 9.45898 8.53043 9.45898 8C9.45898 7.46957 9.6697 6.96086 10.0448 6.58579C10.4198 6.21071 10.9286 6 11.459 6C11.9894 6 12.4981 6.21071 12.8732 6.58579C13.2483 6.96086 13.459 7.46957 13.459 8Z" fill="white"/>
<path fill-rule="evenodd" clip-rule="evenodd" d="M11.459 0C5.38398 0 0.458984 4.925 0.458984 11C0.458984 17.075 5.38398 22 11.459 22C17.534 22 22.459 17.075 22.459 11C22.459 4.925 17.534 0 11.459 0ZM2.45898 11C2.45898 13.09 3.17198 15.014 4.36698 16.542C5.20622 15.4399 6.28888 14.5467 7.53042 13.9323C8.77195 13.3179 10.1387 12.9988 11.524 13C12.8913 12.9987 14.2409 13.3095 15.4699 13.9088C16.6989 14.508 17.7749 15.3799 18.616 16.458C19.4824 15.3216 20.0658 13.9952 20.3179 12.5886C20.5699 11.182 20.4834 9.73553 20.0655 8.36898C19.6475 7.00243 18.9102 5.75505 17.9145 4.73004C16.9187 3.70503 15.6932 2.93186 14.3394 2.47451C12.9855 2.01716 11.5422 1.88877 10.1288 2.09997C8.71551 2.31117 7.37278 2.85589 6.21175 3.68905C5.05073 4.52222 4.1048 5.61987 3.45221 6.8912C2.79963 8.16252 2.45916 9.57097 2.45898 11ZM11.459 20C9.39293 20.0031 7.38925 19.2923 5.78698 17.988C6.43191 17.0647 7.29032 16.3109 8.28918 15.7907C9.28803 15.2705 10.3978 14.9992 11.524 15C12.6361 14.9991 13.7325 15.2636 14.7219 15.7714C15.7114 16.2793 16.5653 17.0159 17.213 17.92C15.5983 19.2667 13.5616 20.0029 11.459 20Z" fill="white"/>
</svg>
