<svg width="19" height="21" viewBox="0 0 19 21" fill="none" xmlns="http://www.w3.org/2000/svg">
<path d="M7.60513 1.24988C7.75455 0.880589 8.01084 0.564335 8.34116 0.34165C8.67147 0.118966 9.06077 0 9.45913 0C9.8575 0 10.2468 0.118966 10.5771 0.34165C10.9074 0.564335 11.1637 0.880589 11.3131 1.24988C12.7919 1.65656 14.0963 2.53743 15.0259 3.75721C15.9555 4.97699 16.4591 6.46822 16.4591 8.00188V12.6989L18.2911 15.4469C18.3916 15.5975 18.4493 15.7725 18.4581 15.9534C18.4669 16.1342 18.4264 16.314 18.341 16.4736C18.2556 16.6333 18.1285 16.7667 17.9731 16.8598C17.8178 16.9528 17.6402 17.0019 17.4591 17.0019H12.9241C12.8037 17.835 12.3872 18.5968 11.7508 19.1478C11.1145 19.6988 10.3009 20.0021 9.45913 20.0021C8.61737 20.0021 7.80379 19.6988 7.16743 19.1478C6.53107 18.5968 6.11454 17.835 5.99413 17.0019H1.45913C1.27809 17.0019 1.10044 16.9528 0.945125 16.8598C0.789813 16.7667 0.66267 16.6333 0.57726 16.4736C0.49185 16.314 0.451379 16.1342 0.460162 15.9534C0.468946 15.7725 0.526655 15.5975 0.627134 15.4469L2.45913 12.6989V8.00188C2.45913 4.77788 4.63913 2.06188 7.60513 1.24988ZM8.04513 17.0019C8.14841 17.2945 8.33992 17.5479 8.59326 17.7272C8.8466 17.9064 9.14929 18.0027 9.45963 18.0027C9.76997 18.0027 10.0727 17.9064 10.326 17.7272C10.5793 17.5479 10.7709 17.2945 10.8741 17.0019H8.04413H8.04513ZM9.45913 3.00188C8.13305 3.00188 6.86128 3.52866 5.9236 4.46634C4.98592 5.40403 4.45913 6.67579 4.45913 8.00188V13.0019C4.45918 13.1994 4.40072 13.3925 4.29113 13.5569L3.32813 15.0019H15.5891L14.6261 13.5569C14.5169 13.3924 14.4588 13.1993 14.4591 13.0019V8.00188C14.4591 6.67579 13.9324 5.40403 12.9947 4.46634C12.057 3.52866 10.7852 3.00188 9.45913 3.00188Z" fill="white"/>
</svg>
