<svg width="50" height="52" viewBox="0 0 50 52" fill="none" xmlns="http://www.w3.org/2000/svg">
<path d="M7.26562 23.5566H3.82813C3.04688 23.5566 2.46094 24.1944 2.46094 24.9517C2.46094 25.7489 3.08594 26.3468 3.82813 26.3468H7.26562V23.5566Z" fill="#EA6C3A"/>
<path d="M38.4363 10.0842C38.5925 11.2003 38.866 13.3128 39.0222 14.4289C39.1003 14.8673 39.5691 15.1463 39.9597 14.947C41.0925 14.389 41.7957 13.1534 41.6003 11.838C41.405 10.5227 40.3894 9.52622 39.1785 9.28706C38.7488 9.20735 38.3582 9.60593 38.4363 10.0842Z" fill="#FAC136"/>
<path d="M42.4219 42.9277C38.6465 42.9277 35.5859 39.8047 35.5859 35.9524C35.5859 32.1 38.6465 28.9771 42.4219 28.9771C46.1973 28.9771 49.2578 32.1 49.2578 35.9524C49.2578 39.8047 46.1973 42.9277 42.4219 42.9277Z" fill="#013177"/>
<path d="M42.4219 39.819C40.3292 39.819 38.6328 38.088 38.6328 35.9527C38.6328 33.8174 40.3292 32.0864 42.4219 32.0864C44.5145 32.0864 46.2109 33.8174 46.2109 35.9527C46.2109 38.088 44.5145 39.819 42.4219 39.819Z" fill="#074EA3"/>
<path d="M11.8359 42.9277C8.06056 42.9277 5 39.8047 5 35.9524C5 32.1 8.06056 28.9771 11.8359 28.9771C15.6113 28.9771 18.6719 32.1 18.6719 35.9524C18.6719 39.8047 15.6113 42.9277 11.8359 42.9277Z" fill="#013177"/>
<path d="M11.8359 39.819C9.7433 39.819 8.04688 38.088 8.04688 35.9527C8.04688 33.8174 9.7433 32.0864 11.8359 32.0864C13.9286 32.0864 15.625 33.8174 15.625 35.9527C15.625 38.088 13.9286 39.819 11.8359 39.819Z" fill="#074EA3"/>
<path d="M12.6174 21.8029H12.5393C11.719 21.8427 0.312714 22.9189 0.312714 35.5941C0.312714 36.3514 0.937714 36.9891 1.6799 36.9891H29.844C32.8127 36.9891 35.5862 35.6738 37.5393 33.4018L41.2893 28.9775C41.7971 28.3796 41.9924 27.5824 41.8362 26.7852C41.0549 23.1581 39.5315 19.7302 37.3049 16.7408L36.6018 15.7842H33.6721L36.4065 27.3034C36.2112 30.7711 33.3596 33.4815 29.9612 33.5214H25.1565C22.969 33.5214 21.2112 31.7277 21.2112 29.4956C21.2112 28.1006 21.9143 26.8251 23.0861 26.0678L25.3908 24.593C25.8596 24.2741 26.1721 23.7161 26.1721 23.1581V21.763H12.6174V21.8029Z" fill="#FBB040"/>
<path d="M13.0469 24.7524C13.0859 24.7524 13.0859 24.7524 13.0469 24.7524C13.3594 24.7524 13.5938 25.0315 13.5938 25.3105C13.5938 25.6293 13.3594 25.8685 13.0469 25.8685C8.24218 25.8685 4.37499 29.8145 4.37499 34.7172C4.37499 35.036 4.14062 35.2752 3.82812 35.2752C3.51562 35.2752 3.28124 35.036 3.28124 34.7172C3.28124 29.2166 7.65625 24.7524 13.0469 24.7524Z" fill="#F7941E"/>
<path d="M24.1406 23.3174L26.1719 22.3607C26.4844 22.2013 26.6797 21.8824 26.6797 21.5636C26.6797 19.6902 25.1953 18.1357 23.3203 18.1357H17.6562C15.7422 18.1357 13.7891 18.0161 11.875 17.7371C9.99999 17.5777 8.43749 19.0923 8.43749 21.0055V22.3607C8.43749 22.7992 8.78905 23.1978 9.2578 23.1978L21.2891 23.7159C22.2656 23.9152 23.2422 23.7558 24.1406 23.3174Z" fill="#074EA3"/>
<path d="M7.14844 10.9215L7.1875 11.0012C7.89063 12.0774 8.28125 13.313 8.28125 14.5885V15.3857C8.28125 15.7444 8.04688 16.1031 7.69531 16.2227L7.22657 16.3822C6.79688 16.5017 6.32813 16.2626 6.17188 15.8241L5.00001 11.8781C4.84376 11.3998 5.11719 10.9215 5.58594 10.8019L6.25 10.6026C6.60157 10.483 6.95313 10.6026 7.14844 10.9215Z" fill="#013177"/>
<path d="M4.8828 11.958C4.64843 12.0377 4.53124 12.2768 4.60937 12.516L6.83593 20.5675C7.03124 21.3248 7.61718 21.9626 8.32031 22.2416L9.29688 22.6402V21.6437L9.0625 21.564C8.28125 21.285 7.69531 20.6472 7.46093 19.8102L5.42968 12.237C5.35155 12.0377 5.11718 11.8783 4.8828 11.958Z" fill="#013177"/>
<path d="M33.3193 14.9072L32.8114 13.1534C32.6552 12.6751 32.8114 12.117 33.2021 11.7982L34.8427 10.3632C35.5068 9.80522 36.3271 9.44649 37.1864 9.36677L39.7255 9.16748C39.9208 9.16748 40.0771 9.2472 40.1552 9.40663L40.4677 10.1241C40.9755 11.28 41.2099 12.5156 41.1318 13.7513L41.0927 14.4289C41.0927 14.6281 40.9364 14.7876 40.7411 14.8274L39.0614 15.0666C37.7333 15.2659 36.913 16.661 37.4208 17.9763L34.0614 17.2987L33.3193 14.9072Z" fill="#F7941E"/>
<path d="M35 10.3635C35 10.3635 35.7031 10.0446 36.0938 11.0411C36.4844 11.9977 35.6641 12.8746 35.6641 12.8746L32.7344 13.8711C32.1484 14.0704 31.5234 13.6718 31.4063 13.034C31.3281 12.5956 31.5625 12.1572 31.9531 11.9579L35 10.3635Z" fill="#013177"/>
<path d="M48.8289 33.3616H47.0711C43.0477 33.4015 39.1414 34.7168 35.8211 37.1084C35.2742 37.5069 34.532 37.0685 34.5711 36.351C34.6102 35.4741 34.7664 34.2784 35.1961 33.0427C35.9773 30.6512 37.618 28.5387 40.1961 27.8212C45.5477 26.3464 48.3992 30.0135 49.532 32.0463C49.8055 32.684 49.4148 33.3616 48.8289 33.3616Z" fill="#FBB040"/>
<path d="M44.1406 29.6552C44.1406 29.6552 41.3281 28.6986 39.0234 30.4923C37.4609 31.688 36.9531 33.402 36.9531 33.402" stroke="#F7941E" stroke-width="2.5" stroke-miterlimit="10" stroke-linecap="round"/>
</svg>
