<svg width="35" height="29" viewBox="0 0 35 29" fill="none" xmlns="http://www.w3.org/2000/svg">
<path d="M22.9333 0.695312C23.3628 0.695313 23.7747 0.836233 24.0784 1.08707C24.3821 1.33791 24.5527 1.67813 24.5527 2.03287V3.37043H32.65V11.3958H29.3803L33.8273 21.4876C34.1443 22.1666 34.2902 22.8918 34.2562 23.6189C34.2223 24.346 34.0091 25.0597 33.6297 25.7164C33.2503 26.3732 32.7127 26.9591 32.0498 27.4383C31.3869 27.9176 30.6126 28.2801 29.7742 28.5038C28.9359 28.7274 28.0511 28.8075 27.174 28.739C26.2969 28.6706 25.4459 28.4551 24.6731 28.1057C23.9003 27.7564 23.2219 27.2805 22.6794 26.7072C22.1368 26.1338 21.7416 25.4751 21.5179 24.7714H14.632C14.2639 25.9453 13.4242 26.9812 12.2502 27.7094C11.0763 28.4377 9.63778 28.8152 8.1702 28.7801C6.70261 28.745 5.29295 28.2993 4.17205 27.5161C3.05115 26.7329 2.28543 25.6586 2.00028 24.4691C1.47546 24.2426 1.03584 23.9017 0.729189 23.4834C0.422542 23.065 0.260607 22.5853 0.260987 22.0962V8.72066C0.260987 8.36592 0.431607 8.0257 0.735313 7.77486C1.03902 7.52402 1.45093 7.3831 1.88044 7.3831H13.2166C13.6461 7.3831 14.058 7.52402 14.3617 7.77486C14.6654 8.0257 14.836 8.36592 14.836 8.72066V15.4084C14.836 15.7632 15.0067 16.1034 15.3104 16.3542C15.6141 16.6051 16.026 16.746 16.4555 16.746H19.6944C20.1239 16.746 20.5358 16.6051 20.8395 16.3542C21.1432 16.1034 21.3138 15.7632 21.3138 15.4084V3.37043H16.4555V0.695312H22.9333ZM27.7916 20.7587C27.1029 20.7588 26.4321 20.9404 25.8767 21.2769C25.3214 21.6134 24.9104 22.0873 24.7034 22.6299C24.4964 23.1725 24.5043 23.7555 24.7258 24.2941C24.9473 24.8328 25.3709 25.2991 25.9352 25.6253C26.4995 25.9516 27.175 26.1207 27.8636 26.1083C28.5522 26.0958 29.218 25.9023 29.7645 25.556C30.3109 25.2097 30.7094 24.7285 30.9021 24.1823C31.0948 23.6362 31.0717 23.0535 30.8362 22.5189L30.8103 22.4601C30.5729 21.9585 30.1578 21.5277 29.6192 21.2241C29.0806 20.9206 28.4437 20.7584 27.7916 20.7587ZM8.35823 20.7587C7.49922 20.7587 6.6754 21.0405 6.06799 21.5422C5.46057 22.0439 5.11934 22.7243 5.11934 23.4338C5.11934 24.1433 5.46057 24.8237 6.06799 25.3254C6.6754 25.8271 7.49922 26.1089 8.35823 26.1089C9.21724 26.1089 10.0411 25.8271 10.6485 25.3254C11.2559 24.8237 11.5971 24.1433 11.5971 23.4338C11.5971 22.7243 11.2559 22.0439 10.6485 21.5422C10.0411 21.0405 9.21724 20.7587 8.35823 20.7587ZM11.5971 10.0582H3.49989V12.7333H11.5971V10.0582ZM29.4111 6.04554H24.5527V8.72066H29.4111V6.04554Z" fill="#FF4E00"/>
</svg>
