<svg width="42" height="30" viewBox="0 0 42 30" fill="none" xmlns="http://www.w3.org/2000/svg">
<path d="M35.2259 10.7763H34.1911L27.1559 1.80246C26.768 1.30789 26.2761 0.908643 25.7166 0.634256C25.1571 0.359869 24.5442 0.217364 23.9235 0.217285H10.089C8.39651 0.217285 6.87473 1.26857 6.2461 2.87222L3.14757 10.9255C1.36515 11.3967 0.0432129 13.034 0.0432129 14.9999V22.3912C0.0432129 22.9746 0.506279 23.4472 1.078 23.4472H4.18235C4.18235 26.9461 6.96204 29.7826 10.3911 29.7826C13.8201 29.7826 16.5998 26.9461 16.5998 23.4472H24.878C24.878 26.9461 27.6577 29.7826 31.0868 29.7826C34.5158 29.7826 37.2955 26.9461 37.2955 23.4472H40.3998C40.9715 23.4472 41.4346 22.9746 41.4346 22.3912V17.1117C41.4346 13.6127 38.6549 10.7763 35.2259 10.7763ZM10.3911 26.6149C8.67914 26.6149 7.28671 25.194 7.28671 23.4472C7.28671 21.7003 8.67914 20.2794 10.3911 20.2794C12.103 20.2794 13.4954 21.7003 13.4954 23.4472C13.4954 25.194 12.103 26.6149 10.3911 26.6149ZM15.0476 10.7763H7.60555L10.089 4.4409H15.0476V10.7763ZM18.1519 10.7763V4.4409H23.9235L28.8904 10.7763H18.1519ZM31.0868 26.6149C29.3748 26.6149 27.9824 25.194 27.9824 23.4472C27.9824 21.7003 29.3748 20.2794 31.0868 20.2794C32.7987 20.2794 34.1911 21.7003 34.1911 23.4472C34.1911 25.194 32.7987 26.6149 31.0868 26.6149Z" fill="#FF4E00"/>
</svg>
