<svg width="21" height="19" viewBox="0 0 21 19" fill="none" xmlns="http://www.w3.org/2000/svg">
<path d="M6.70898 8.90747C6.70898 9.24496 6.57729 9.56862 6.34287 9.80726C6.10845 10.0459 5.7905 10.18 5.45898 10.18C5.12746 10.18 4.80952 10.0459 4.5751 9.80726C4.34068 9.56862 4.20898 9.24496 4.20898 8.90747C4.20898 8.56999 4.34068 8.24632 4.5751 8.00768C4.80952 7.76904 5.12746 7.63498 5.45898 7.63498C5.7905 7.63498 6.10845 7.76904 6.34287 8.00768C6.57729 8.24632 6.70898 8.56999 6.70898 8.90747ZM11.709 8.90747C11.709 9.24496 11.5773 9.56862 11.3429 9.80726C11.1084 10.0459 10.7905 10.18 10.459 10.18C10.1275 10.18 9.80952 10.0459 9.5751 9.80726C9.34068 9.56862 9.20898 9.24496 9.20898 8.90747C9.20898 8.56999 9.34068 8.24632 9.5751 8.00768C9.80952 7.76904 10.1275 7.63498 10.459 7.63498C10.7905 7.63498 11.1084 7.76904 11.3429 8.00768C11.5773 8.24632 11.709 8.56999 11.709 8.90747ZM15.459 10.18C15.7905 10.18 16.1084 10.0459 16.3429 9.80726C16.5773 9.56862 16.709 9.24496 16.709 8.90747C16.709 8.56999 16.5773 8.24632 16.3429 8.00768C16.1084 7.76904 15.7905 7.63498 15.459 7.63498C15.1275 7.63498 14.8095 7.76904 14.5751 8.00768C14.3407 8.24632 14.209 8.56999 14.209 8.90747C14.209 9.24496 14.3407 9.56862 14.5751 9.80726C14.8095 10.0459 15.1275 10.18 15.459 10.18Z" fill="white"/>
<path d="M3.16523 18.8368L3.19023 18.8317C5.47773 18.3698 6.87523 17.7602 7.52523 17.4256C8.48222 17.6854 9.46855 17.8163 10.459 17.8149C15.9815 17.8149 20.459 13.8269 20.459 8.90747C20.459 3.988 15.9815 0 10.459 0C4.93648 0 0.458984 3.988 0.458984 8.90747C0.458984 11.1471 1.38773 13.1958 2.92148 14.761C2.81418 15.7664 2.59442 16.756 2.26648 17.7106L2.26273 17.7246C2.16954 17.998 2.06782 18.2683 1.95773 18.5352C1.85898 18.7719 2.05023 19.0365 2.29898 18.9958C2.58856 18.9476 2.87735 18.8946 3.16523 18.8368ZM4.16523 14.8818C4.18274 14.6955 4.15967 14.5076 4.09766 14.3314C4.03565 14.1552 3.93623 13.9952 3.80648 13.8626C2.48148 12.5086 1.70898 10.7755 1.70898 8.90747C1.70898 4.84567 5.46398 1.2725 10.459 1.2725C15.454 1.2725 19.209 4.84567 19.209 8.90747C19.209 12.9706 15.454 16.5424 10.459 16.5424C9.57786 16.5438 8.70037 16.4274 7.84898 16.1963C7.55146 16.1152 7.23497 16.1487 6.96023 16.2905C6.47648 16.5399 5.41023 17.0158 3.66773 17.4268C3.91083 16.5961 4.07738 15.7441 4.16523 14.8818Z" fill="white"/>
</svg>
