<svg width="7" height="15" viewBox="0 0 7 15" fill="none" xmlns="http://www.w3.org/2000/svg">
<path d="M1.16056 14.0013C1.30995 14.0018 1.45756 13.9688 1.59254 13.9048C1.72752 13.8407 1.84644 13.7473 1.94056 13.6313L6.77056 7.63125C6.91764 7.45232 6.99805 7.22788 6.99805 6.99625C6.99805 6.76463 6.91764 6.54018 6.77056 6.36125L1.77056 0.361252C1.60082 0.157036 1.35691 0.0286112 1.09248 0.0042315C0.828057 -0.0201482 0.564775 0.0615137 0.360559 0.231252C0.156343 0.400991 0.0279183 0.644902 0.00353861 0.909329C-0.0208411 1.17375 0.0608201 1.43704 0.230559 1.64125L4.70056 7.00125L0.380559 12.3613C0.258276 12.508 0.180599 12.6868 0.15672 12.8763C0.13284 13.0659 0.163757 13.2583 0.245813 13.4308C0.327869 13.6034 0.457629 13.7488 0.619739 13.8499C0.781849 13.9509 0.969525 14.0035 1.16056 14.0013Z" fill="#0C1A57"/>
</svg>
