<svg width="22" height="26" viewBox="0 0 22 26" fill="none" xmlns="http://www.w3.org/2000/svg">
<path fill-rule="evenodd" clip-rule="evenodd" d="M0 2.6C0 1.91044 0.267444 1.24912 0.743498 0.761522C1.21955 0.273928 1.86522 0 2.53846 0H16.4272L22 5.70787V23.4C22 24.0896 21.7326 24.7509 21.2565 25.2385C20.7804 25.7261 20.1348 26 19.4615 26H2.53846C1.86522 26 1.21955 25.7261 0.743498 25.2385C0.267444 24.7509 0 24.0896 0 23.4V2.6ZM5.07692 6.93333H10.1538V8.66667H5.07692V6.93333ZM16.9231 12.1333H5.07692V13.8667H16.9231V12.1333ZM16.9231 17.3333H11.8462V19.0667H16.9231V17.3333Z" fill="white"/>
</svg>
