<svg width="27" height="26" viewBox="0 0 27 26" fill="none" xmlns="http://www.w3.org/2000/svg">
<path d="M13.459 0C11.759 0 10.459 1.3 10.459 3V9C10.459 10.7 11.759 12 13.459 12H19.459L23.459 16V12C25.159 12 26.459 10.7 26.459 9V3C26.459 1.3 25.159 0 23.459 0H13.459ZM17.647 3H19.365L21.053 9H19.553L19.146 7.5H17.646L17.272 9H15.959L17.647 3ZM18.459 4C18.359 4.4 18.247 4.888 18.146 5.188L17.866 6.5H19.053L18.771 5.187C18.572 4.888 18.459 4.4 18.459 4ZM3.45898 10C1.75898 10 0.458984 11.3 0.458984 13V19C0.458984 20.7 1.75898 22 3.45898 22V26L7.45898 22H13.459C15.159 22 16.459 20.7 16.459 19V13H13.459C11.559 13 10.053 11.7 9.55298 10H3.45898ZM8.05298 12.906C9.75298 12.906 10.553 14.306 10.553 15.906C10.553 17.306 10.072 18.194 9.27198 18.594C9.67198 18.794 10.146 18.9 10.646 19L10.272 20C9.57198 19.8 8.84598 19.488 8.14598 19.187C8.04598 19.087 7.87098 19.094 7.77098 19.094C6.57098 18.994 5.45898 18 5.45898 16C5.45898 14.3 6.45298 12.906 8.05298 12.906ZM8.05298 14C7.25298 14 6.86498 14.9 6.86498 16C6.86498 17.2 7.25298 18 8.05298 18C8.85298 18 9.27098 17.1 9.27098 16C9.27098 14.9 8.85298 14 8.05298 14Z" fill="white"/>
</svg>
