<svg width="28" height="28" viewBox="0 0 28 28" fill="none" xmlns="http://www.w3.org/2000/svg">
<path d="M10.6566 24.2357V20.6684C10.6566 19.7577 11.4002 19.0195 12.3175 19.0195H15.6707C16.1112 19.0195 16.5337 19.1932 16.8452 19.5025C17.1567 19.8117 17.3317 20.2311 17.3317 20.6684V24.2357C17.3289 24.6143 17.4784 24.9784 17.7471 25.247C18.0158 25.5157 18.3814 25.6668 18.7628 25.6668H21.0505C22.1189 25.6696 23.1446 25.2501 23.901 24.5011C24.6575 23.7521 25.0827 22.735 25.0827 21.6743V11.5115C25.0827 10.6547 24.7001 9.84198 24.0381 9.29228L16.2557 3.12201C14.902 2.04015 12.9623 2.07508 11.649 3.20497L4.0442 9.29228C3.35088 9.82577 2.93649 10.6409 2.91602 11.5115V21.6639C2.91602 23.8747 4.72129 25.6668 6.94822 25.6668H9.18369C9.97578 25.6668 10.6195 25.0324 10.6253 24.2461L10.6566 24.2357Z" fill="white"/>
</svg>
