<svg width="316" height="144" viewBox="0 0 316 144" fill="none" xmlns="http://www.w3.org/2000/svg">
<g clip-path="url(#clip0)">
<path d="M265.298 2.93889C264.578 3.10129 263.864 2.64579 263.702 1.92262C263.618 1.54334 263.855 1.16773 264.232 1.08216C264.953 0.919964 265.667 1.37546 265.829 2.09863C265.913 2.47791 265.676 2.85352 265.298 2.93889ZM257.993 3.72771C257.669 3.80109 257.346 3.5956 257.273 3.26877C257.2 2.94254 257.405 2.61937 257.73 2.5462C258.054 2.47282 258.377 2.67831 258.45 3.00454C258.523 3.33056 258.318 3.65454 257.993 3.72771ZM255.433 4.30374C255.109 4.3765 254.786 4.17162 254.713 3.8456C254.64 3.51938 254.845 3.19539 255.17 3.12222C255.495 3.04885 255.817 3.25434 255.89 3.58056C255.963 3.90739 255.758 4.23056 255.433 4.30374ZM252.873 4.87996C252.549 4.95313 252.226 4.74764 252.153 4.42162C252.081 4.0954 252.285 3.77141 252.61 3.69824C252.935 3.62568 253.257 3.83036 253.33 4.15658C253.403 4.4828 253.198 4.80679 252.873 4.87996ZM250.314 5.45598C249.989 5.52936 249.666 5.32387 249.594 4.99764C249.521 4.67142 249.726 4.34743 250.05 4.27447C250.375 4.2017 250.698 4.40658 250.77 4.73341C250.843 5.05943 250.639 5.38281 250.314 5.45598ZM247.753 6.032C247.429 6.10538 247.107 5.9007 247.034 5.57367C246.961 5.24765 247.166 4.92366 247.49 4.8511C247.815 4.77793 248.138 4.98342 248.21 5.30944C248.283 5.63566 248.079 5.95964 247.753 6.032ZM245.194 6.60802C244.869 6.6814 244.547 6.47672 244.474 6.14989C244.401 5.82367 244.606 5.49968 244.93 5.42732C245.255 5.35395 245.578 5.55862 245.65 5.88546C245.724 6.21168 245.519 6.53567 245.194 6.60802ZM242.634 7.18486C242.31 7.25823 241.987 7.05274 241.914 6.72591C241.841 6.39969 242.046 6.07652 242.371 6.00334C242.696 5.92997 243.018 6.13546 243.09 6.46168C243.163 6.7877 242.959 7.11169 242.634 7.18486ZM233.069 9.33752C232.745 9.4109 232.422 9.20541 232.349 8.87918C232.277 8.55316 232.481 8.22918 232.806 8.15601C233.131 8.08324 233.453 8.28812 233.526 8.61414C233.599 8.94036 233.394 9.26435 233.069 9.33752ZM230.509 9.91354C230.185 9.98692 229.862 9.78143 229.79 9.4552C229.717 9.12919 229.921 8.8052 230.246 8.73203C230.571 8.65947 230.893 8.86496 230.965 9.19097C231.039 9.5172 230.834 9.84037 230.509 9.91354ZM227.95 10.4896C227.625 10.5629 227.303 10.3583 227.23 10.032C227.157 9.70521 227.361 9.38122 227.686 9.30886C228.011 9.23549 228.334 9.44098 228.406 9.7672C228.479 10.0932 228.275 10.4172 227.95 10.4896ZM225.39 11.0658C225.065 11.1398 224.743 10.9343 224.67 10.6075C224.597 10.2812 224.802 9.95724 225.126 9.88488C225.452 9.81151 225.773 10.017 225.846 10.3432C225.919 10.6692 225.715 10.9932 225.39 11.0658ZM215.825 13.2191C215.5 13.2924 215.178 13.0869 215.105 12.7607C215.033 12.4347 215.237 12.1107 215.561 12.0375C215.887 11.9642 216.209 12.1697 216.281 12.4959C216.354 12.8219 216.15 13.1459 215.825 13.2191ZM213.265 13.7951C212.941 13.8685 212.618 13.663 212.546 13.3369C212.473 13.0107 212.677 12.6867 213.001 12.6136C213.327 12.541 213.649 12.7457 213.721 13.0719C213.794 13.3987 213.59 13.7219 213.265 13.7951ZM210.705 14.3719C210.38 14.4445 210.059 14.239 209.986 13.913C209.913 13.5867 210.117 13.2628 210.442 13.1896C210.767 13.117 211.089 13.3225 211.162 13.6487C211.234 13.9748 211.031 14.2981 210.705 14.3719ZM208.145 14.9473C207.821 15.0207 207.499 14.8158 207.426 14.4898C207.353 14.163 207.557 13.839 207.882 13.7664C208.207 13.693 208.529 13.8985 208.602 14.2248C208.675 14.551 208.471 14.875 208.145 14.9473ZM269.077 1.78461C269.042 1.76753 269.01 1.75107 268.98 1.73379C266.743 0.489676 264.781 -0.403828 262.138 0.186015C262.128 0.188047 208.253 12.2107 208.253 12.2107C206.772 12.5412 205.225 12.2963 203.919 11.5205C201.669 10.1853 198.545 8.24727 196.949 6.88384C194.284 4.60821 191.218 1.66326 191.218 1.66326L186.287 3.13584L192.713 15.6786L189.11 16.4825C188.185 16.6894 188.179 18.011 189.102 18.2258L196.808 20.0163C203.247 21.5126 209.925 21.6124 216.405 20.3065C217.334 20.1189 218.314 19.9216 219.329 19.7161C216.978 22.5793 214.453 25.7153 214.4 26.0304C214.301 26.6245 223.962 24.2484 224.849 23.8519C225.206 23.6931 227.627 21.5204 230.393 18.9797C231.484 19.0695 232.474 18.9185 233.138 18.3317C233.922 17.6384 234.332 17.0667 234.475 16.6114C244.326 14.5634 254.319 12.4172 259.851 11.0339C262.998 10.2465 271.645 7.32876 272.379 4.47366C272.779 2.91795 270.138 2.31916 269.077 1.78461Z" fill="url(#paint0_linear)"/>
<path d="M217.246 50.106C203.701 55.5731 190.734 48.4811 175.44 38.0848C173.982 37.2104 172.411 36.1328 170.717 34.8337C167.441 32.5585 164.052 30.1816 160.524 27.785C121.669 3.47026 55.9995 -11.7508 22.5802 36.8868C-8.72976 82.4549 10.971 128.041 17.2728 140.191C18.3552 142.214 19.0089 143.325 19.0089 143.325L308.68 143.407C323.114 30.5224 254.685 34.9931 217.246 50.1061V50.106Z" fill="#EDF4FF"/>
<path d="M140.274 98.3931H99.3789V133.122H145.199L140.274 98.3931Z" fill="#DB6161"/>
<path d="M138.484 99.582H92.1348V133.123H143.29L138.484 99.582Z" fill="#233862"/>
<path d="M118.494 133.122H124.797V126.713H118.494V133.122Z" fill="#E69D43"/>
<path d="M124.535 133.122H128.35V126.713H124.535V133.122Z" fill="#D57912"/>
<path d="M118.158 126.801H128.61V118.661H118.158V126.801Z" fill="#E69D43"/>
<path d="M128.35 126.801H131.235V120.48H128.35V126.801Z" fill="#D57912"/>
<path d="M74.1727 135.547H60.7139C60.3868 135.547 60.1191 135.279 60.1191 134.95V129.627C60.1191 129.298 60.3868 129.03 60.7139 129.03H74.1727C74.4999 129.03 74.7675 129.298 74.7675 129.627V134.95C74.7675 135.279 74.4999 135.547 74.1727 135.547Z" fill="#B65615"/>
<path d="M111.896 137.699C111.896 134.446 114.525 131.81 117.768 131.81C121.011 131.81 123.64 134.446 123.64 137.699C123.64 140.951 121.011 143.588 117.768 143.588C114.525 143.588 111.896 140.951 111.896 137.699Z" fill="#233862"/>
<path d="M131.643 137.699C131.643 134.446 134.272 131.81 137.514 131.81C140.757 131.81 143.386 134.446 143.386 137.699C143.386 140.951 140.757 143.588 137.514 143.588C134.272 143.588 131.643 140.951 131.643 137.699Z" fill="#233862"/>
<path d="M62.1211 137.699C62.1211 134.446 64.7501 131.81 67.9933 131.81C71.2361 131.81 73.8651 134.446 73.8651 137.699C73.8651 140.951 71.2361 143.588 67.9933 143.588C64.7501 143.588 62.1211 140.951 62.1211 137.699Z" fill="#233862"/>
<path d="M65.0293 137.699C65.0293 136.058 66.356 134.726 67.993 134.726C69.6295 134.726 70.9566 136.058 70.9566 137.699C70.9566 139.34 69.6295 140.671 67.993 140.671C66.356 140.671 65.0293 139.34 65.0293 137.699Z" fill="#D36E2A"/>
<path d="M65.0293 137.699C65.0293 136.058 66.356 134.726 67.993 134.726C69.6295 134.726 70.9566 136.058 70.9566 137.699C70.9566 139.34 69.6295 140.671 67.993 140.671C66.356 140.671 65.0293 139.34 65.0293 137.699Z" fill="#F59040"/>
<path d="M69.9657 135.482C70.1321 135.853 70.2257 136.264 70.2257 136.697C70.2257 138.34 68.8988 139.67 67.262 139.67C66.5042 139.67 65.8131 139.384 65.2891 138.916C65.7529 139.951 66.7886 140.67 67.9931 140.67C69.6296 140.67 70.9567 139.34 70.9567 137.699C70.9567 136.817 70.5736 136.026 69.9657 135.481V135.482Z" fill="#D36E2A"/>
<path d="M67.0723 137.699C67.0723 137.189 67.4836 136.778 67.9912 136.778C68.4982 136.778 68.9099 137.189 68.9099 137.699C68.9099 138.207 68.4982 138.62 67.9912 138.62C67.4836 138.62 67.0723 138.207 67.0723 137.699Z" fill="#B65615"/>
<path d="M66.0723 139.278C66.0723 139.08 66.2314 138.92 66.4279 138.92C66.6242 138.92 66.7836 139.08 66.7836 139.278C66.7836 139.475 66.6242 139.635 66.4279 139.635C66.2314 139.635 66.0723 139.475 66.0723 139.278Z" fill="#B65615"/>
<path d="M65.6582 136.629C65.6582 136.431 65.8174 136.271 66.0139 136.271C66.2104 136.271 66.3696 136.431 66.3696 136.629C66.3696 136.825 66.2104 136.986 66.0139 136.986C65.8174 136.986 65.6582 136.825 65.6582 136.629Z" fill="#B65615"/>
<path d="M69.5703 136.629C69.5703 136.431 69.7295 136.271 69.926 136.271C70.1225 136.271 70.2819 136.431 70.2819 136.629C70.2819 136.825 70.1225 136.986 69.926 136.986C69.7295 136.986 69.5703 136.825 69.5703 136.629Z" fill="#B65615"/>
<path d="M69.2734 139.278C69.2734 139.08 69.4326 138.92 69.6291 138.92C69.8258 138.92 69.9848 139.08 69.9848 139.278C69.9848 139.475 69.8258 139.635 69.6291 139.635C69.4326 139.635 69.2734 139.475 69.2734 139.278Z" fill="#B65615"/>
<path d="M67.6367 135.427C67.6367 135.231 67.7959 135.071 67.9925 135.071C68.1888 135.071 68.3479 135.231 68.3479 135.427C68.3479 135.625 68.1888 135.785 67.9925 135.785C67.7959 135.785 67.6367 135.625 67.6367 135.427Z" fill="#B65615"/>
<path d="M114.695 137.699C114.695 136.058 116.022 134.726 117.658 134.726C119.295 134.726 120.621 136.058 120.621 137.699C120.621 139.34 119.295 140.671 117.658 140.671C116.022 140.671 114.695 139.34 114.695 137.699Z" fill="#D36E2A"/>
<path d="M114.695 137.699C114.695 136.058 116.022 134.726 117.658 134.726C119.295 134.726 120.621 136.058 120.621 137.699C120.621 139.34 119.295 140.671 117.658 140.671C116.022 140.671 114.695 139.34 114.695 137.699Z" fill="#D36E2A"/>
<path d="M116.74 137.699C116.74 137.189 117.152 136.778 117.659 136.778C118.166 136.778 118.577 137.189 118.577 137.699C118.577 138.207 118.166 138.62 117.659 138.62C117.152 138.62 116.74 138.207 116.74 137.699Z" fill="#B65615"/>
<path d="M115.74 139.278C115.74 139.08 115.899 138.92 116.095 138.92C116.292 138.92 116.451 139.08 116.451 139.278C116.451 139.475 116.292 139.635 116.095 139.635C115.899 139.635 115.74 139.475 115.74 139.278Z" fill="#B65615"/>
<path d="M115.607 136.629C115.607 136.431 115.767 136.271 115.962 136.271C116.159 136.271 116.319 136.431 116.319 136.629C116.319 136.825 116.159 136.986 115.962 136.986C115.767 136.986 115.607 136.825 115.607 136.629Z" fill="#B65615"/>
<path d="M118.941 139.278C118.941 139.08 119.101 138.92 119.298 138.92C119.493 138.92 119.653 139.08 119.653 139.278C119.653 139.475 119.493 139.635 119.298 139.635C119.101 139.635 118.941 139.475 118.941 139.278Z" fill="#B65615"/>
<path d="M114.58 135.427C114.58 135.231 114.74 135.071 114.936 135.071C115.132 135.071 115.291 135.231 115.291 135.427C115.291 135.625 115.132 135.785 114.936 135.785C114.74 135.785 114.58 135.625 114.58 135.427Z" fill="#B65615"/>
<path d="M78.8047 137.699C78.8047 134.446 81.4338 131.81 84.6769 131.81C87.9198 131.81 90.5487 134.446 90.5487 137.699C90.5487 140.951 87.9198 143.588 84.6769 143.588C81.4338 143.588 78.8047 140.951 78.8047 137.699Z" fill="#233862"/>
<path d="M67.9277 105.9C67.9277 105.9 71.1137 101.08 74.7971 101.04L74.4685 106.255L67.9277 105.9V105.9Z" fill="#D57912"/>
<path d="M86.6963 127.921H61.1953L63.3177 110.645C63.6627 107.837 66.041 105.728 68.8622 105.728H86.6963V127.921V127.921Z" fill="#E69D43"/>
<path d="M71.872 117.36H64.7207L65.6681 110.538C65.8633 109.135 67.0609 108.088 68.4751 108.088H72.0934L71.872 117.36Z" fill="#D57912"/>
<path d="M71.3446 116.847H66.6365C65.9259 116.847 65.3778 116.219 65.4714 115.513L66.0963 110.793C66.2613 109.547 67.2745 108.619 68.471 108.619H71.532L71.3447 116.847H71.3446Z" fill="#DCE7F9"/>
<path d="M121.381 133.122H72.332L74.52 98.3931H118.483L121.381 133.122Z" fill="#D15050"/>
<path d="M119.463 131.805H74.1348L76.1564 99.7109H116.784L118.956 125.726L119.463 131.805Z" fill="#B64C41"/>
<path d="M76.755 127.92H61.1946C59.8243 128.011 59.6919 128.691 59.6919 128.691L58.3613 135.146C58.3613 135.366 58.5637 135.546 58.8105 135.546H62.7229C62.97 135.546 63.1482 135.364 63.2536 135.135C63.2536 135.135 63.8557 134.389 64.2594 134.121C65.2709 133.453 66.3689 133.015 67.9913 133.015C69.9856 133.015 71.7475 133.651 72.8089 134.623H76.7549C77.2311 134.623 77.6208 134.374 77.6208 134.07V128.474C77.6208 128.17 77.2311 127.92 76.7549 127.92H76.755Z" fill="#D57912"/>
<path d="M125.68 140.59H120.749C120.636 139.992 120.421 139.464 120.131 138.999C118.64 136.602 115.154 135.87 113.168 135.645C112.297 135.547 111.715 135.547 111.715 135.547H120.191C122.409 135.848 123.771 137.06 124.582 138.222C125.431 139.435 125.68 140.59 125.68 140.59Z" fill="#D15050"/>
<path d="M145.2 140.59H140.269C140.139 139.909 139.879 139.318 139.527 138.808C137.275 135.552 131.234 135.547 131.234 135.547H139.712C141.566 135.799 142.821 136.688 143.657 137.652C144.866 139.044 145.2 140.59 145.2 140.59Z" fill="#D15050"/>
<path d="M124.581 138.222C124.581 138.222 121.335 137.535 120.13 138.999C118.638 136.602 115.153 135.87 113.166 135.645C113.126 135.612 113.086 135.579 113.047 135.547H120.19C122.407 135.848 123.769 137.06 124.581 138.222L124.581 138.222Z" fill="#A03C37"/>
<path d="M143.657 137.652C143.657 137.652 140.943 137.591 139.527 138.808C137.275 135.552 131.234 135.547 131.234 135.547H139.712C141.566 135.799 142.821 136.688 143.657 137.652H143.657Z" fill="#A03C37"/>
<path d="M73.4434 136.49H145.757C146.12 136.49 146.417 136.192 146.417 135.828V133.785C146.417 133.42 146.12 133.123 145.757 133.123H73.4434C73.0802 133.123 72.7832 133.421 72.7832 133.785V135.828C72.7832 136.192 73.0803 136.49 73.4434 136.49Z" fill="#A03C37"/>
<path d="M89.9124 141.429H76.5367C76.1867 141.429 75.9004 141.142 75.9004 140.791V134.607C75.9004 134.256 76.1866 133.968 76.5367 133.968H89.9124C90.2623 133.968 90.5488 134.256 90.5488 134.607V140.791C90.5488 141.142 90.2624 141.429 89.9124 141.429Z" fill="#A03C37"/>
<path d="M119.522 131.805H74.1934L76.2151 99.7109H84.1323C86.6108 107.042 94.9947 124.424 119.014 125.726L119.521 131.805L119.522 131.805Z" fill="#C44943"/>
<path d="M61.6598 114.017C61.6598 114.017 61.0223 117.452 61.0539 118.013C61.0855 118.572 61.6131 118.847 62.0138 118.847L61.6598 114.017Z" fill="#B64C41"/>
<path d="M63.5942 118.847H62.0447C61.8183 118.847 61.6328 118.66 61.6328 118.433V114.142C61.6328 113.915 61.8182 113.729 62.0447 113.729H63.5942C63.8206 113.729 64.0061 113.915 64.0061 114.142V118.433C64.0061 118.66 63.8207 118.847 63.5942 118.847Z" fill="#D57912"/>
<path d="M63.4755 118.597H62.2484C62.055 118.597 61.8965 118.439 61.8965 118.245V114.369C61.8965 114.176 62.055 114.017 62.2484 114.017H63.4755C63.6687 114.017 63.8268 114.176 63.8268 114.369V118.245C63.8268 118.439 63.6687 118.597 63.4755 118.597Z" fill="#DCE7F9"/>
<path d="M62.8193 113.823C62.7756 113.823 62.7402 113.782 62.7402 113.729V112.286L62.7409 112.274C62.7419 112.266 62.8396 111.444 63.7021 111.47C64.4911 111.495 64.8308 111.471 64.8342 111.47C64.8779 111.467 64.9155 111.507 64.9181 111.557C64.921 111.609 64.8877 111.653 64.8442 111.657C64.8302 111.658 64.4941 111.681 63.698 111.657C63.0034 111.635 62.9069 112.226 62.8985 112.292V113.73C62.8985 113.782 62.863 113.823 62.8194 113.823L62.8193 113.823Z" fill="#B64C41"/>
<path d="M71.2108 119.583H69.7677C69.5659 119.583 69.4004 119.418 69.4004 119.215C69.4004 119.012 69.5659 118.847 69.7677 118.847H71.2108C71.4127 118.847 71.5781 119.012 71.5781 119.215C71.5781 119.418 71.4127 119.583 71.2108 119.583Z" fill="#D57912"/>
<path d="M128.955 133.122H135.259V126.8H128.955V133.122Z" fill="#E69D43"/>
<path d="M134.996 133.122H137.882V126.8H134.996V133.122Z" fill="#D57912"/>
<path d="M86.0758 115.339C86.0682 115.22 86.0448 115.108 86.0053 115.003C85.9661 114.901 85.9077 114.809 85.8308 114.733C85.7539 114.656 85.6572 114.595 85.5408 114.552C85.4246 114.509 85.2854 114.487 85.1243 114.487H84.3696V117.028H85.1523C85.3062 117.028 85.4395 117.007 85.5521 116.963C85.6647 116.921 85.7587 116.861 85.8337 116.786C85.9087 116.71 85.9661 116.62 86.0053 116.515C86.0449 116.41 86.0682 116.296 86.0758 116.176C86.0906 115.898 86.0906 115.619 86.0758 115.34V115.339ZM85.1522 113.781C85.43 113.781 85.6711 113.818 85.8758 113.891C86.0803 113.965 86.251 114.069 86.3883 114.204C86.5253 114.34 86.6303 114.505 86.7036 114.696C86.7769 114.888 86.8209 115.103 86.836 115.339C86.851 115.618 86.851 115.898 86.836 116.175C86.8209 116.413 86.7769 116.627 86.7036 116.82C86.6304 117.011 86.5262 117.176 86.3911 117.311C86.2558 117.447 86.0878 117.551 85.887 117.624C85.6864 117.697 85.4508 117.734 85.1804 117.734H83.7615C83.7203 117.734 83.6846 117.72 83.6544 117.689C83.6242 117.659 83.6094 117.623 83.6094 117.581V113.933C83.6094 113.892 83.6242 113.857 83.6544 113.827C83.6846 113.796 83.7203 113.781 83.7615 113.781H85.1523H85.1522Z" fill="white"/>
<path d="M90.1985 117.028C90.2397 117.028 90.2753 117.043 90.3055 117.073C90.3356 117.104 90.3506 117.139 90.3506 117.181V117.581C90.3506 117.623 90.3356 117.659 90.3055 117.689C90.2753 117.72 90.2397 117.734 90.1985 117.734H87.7264C87.6851 117.734 87.6496 117.72 87.6196 117.689C87.5894 117.659 87.5742 117.623 87.5742 117.581V113.933C87.5742 113.892 87.5894 113.857 87.6196 113.827C87.6496 113.796 87.6851 113.781 87.7264 113.781H90.1536C90.1948 113.781 90.2302 113.796 90.2604 113.827C90.2903 113.857 90.3055 113.892 90.3055 113.933V114.334C90.3055 114.375 90.2903 114.412 90.2604 114.442C90.2302 114.473 90.1948 114.487 90.1536 114.487H88.3345V115.386H90.0296C90.0708 115.386 90.1062 115.4 90.1367 115.431C90.1666 115.46 90.1815 115.497 90.1815 115.538V115.939C90.1815 115.98 90.1666 116.016 90.1367 116.045C90.1062 116.076 90.0708 116.092 90.0296 116.092H88.3345V117.028H90.1985Z" fill="white"/>
<path d="M93.6672 117.028C93.7085 117.028 93.7441 117.043 93.7743 117.073C93.8042 117.104 93.8194 117.139 93.8194 117.181V117.581C93.8194 117.623 93.8042 117.659 93.7743 117.689C93.7441 117.72 93.7085 117.734 93.6672 117.734H91.2009C91.1596 117.734 91.1239 117.72 91.094 117.689C91.0638 117.659 91.0488 117.623 91.0488 117.581V113.933C91.0488 113.892 91.0638 113.857 91.094 113.827C91.1239 113.796 91.1596 113.781 91.2009 113.781H91.6569C91.6981 113.781 91.7338 113.796 91.764 113.827C91.7939 113.857 91.8092 113.892 91.8092 113.933V117.028H93.6672H93.6672Z" fill="white"/>
<path d="M94.5116 117.734C94.47 117.734 94.4345 117.72 94.4043 117.689C94.3743 117.659 94.3594 117.623 94.3594 117.581V113.933C94.3594 113.892 94.3743 113.857 94.4043 113.827C94.4345 113.796 94.47 113.781 94.5116 113.781H94.9675C95.0087 113.781 95.0444 113.796 95.0743 113.827C95.1045 113.857 95.1194 113.892 95.1194 113.933V117.581C95.1194 117.623 95.1045 117.659 95.0743 117.689C95.0444 117.72 95.0087 117.734 94.9675 117.734H94.5116Z" fill="white"/>
<path d="M97.4284 116.617L98.3747 113.923C98.3859 113.892 98.4055 113.861 98.4337 113.829C98.462 113.797 98.5041 113.781 98.5605 113.781H98.9883C99.0297 113.781 99.0646 113.796 99.0954 113.827C99.1248 113.857 99.1403 113.892 99.1403 113.933V113.953C99.1403 113.959 99.1369 113.971 99.1296 113.99L97.8679 117.542C97.8455 117.606 97.8188 117.655 97.789 117.687C97.7591 117.719 97.7141 117.734 97.6539 117.734H97.2033C97.1433 117.734 97.0984 117.719 97.0682 117.687C97.0381 117.655 97.0121 117.606 96.9895 117.542L95.7281 113.99C95.7207 113.971 95.7168 113.959 95.7168 113.953V113.933C95.7168 113.892 95.7318 113.857 95.762 113.827C95.7919 113.796 95.8275 113.781 95.869 113.781H96.297C96.3532 113.781 96.3954 113.797 96.4235 113.829C96.4518 113.861 96.4716 113.892 96.4829 113.923L97.4286 116.617H97.4284Z" fill="white"/>
<path d="M102.361 117.028C102.402 117.028 102.438 117.043 102.468 117.073C102.498 117.104 102.513 117.139 102.513 117.181V117.581C102.513 117.623 102.498 117.659 102.468 117.689C102.438 117.72 102.402 117.734 102.361 117.734H99.8884C99.8471 117.734 99.8121 117.72 99.7823 117.689C99.7517 117.659 99.7363 117.623 99.7363 117.581V113.933C99.7363 113.892 99.7517 113.857 99.7823 113.827C99.8121 113.796 99.8471 113.781 99.8884 113.781H102.316C102.358 113.781 102.393 113.796 102.422 113.827C102.453 113.857 102.468 113.892 102.468 113.933V114.334C102.468 114.375 102.453 114.412 102.422 114.442C102.393 114.473 102.358 114.487 102.316 114.487H100.497V115.386H102.191C102.233 115.386 102.269 115.4 102.298 115.431C102.329 115.46 102.343 115.497 102.343 115.538V115.939C102.343 115.98 102.329 116.016 102.298 116.045C102.269 116.076 102.233 116.092 102.191 116.092H100.497V117.028H102.361Z" fill="white"/>
<path d="M103.972 115.56H104.788C105.001 115.56 105.172 115.523 105.3 115.447C105.428 115.373 105.492 115.229 105.492 115.018C105.492 114.807 105.428 114.667 105.3 114.594C105.172 114.523 105.001 114.487 104.788 114.487H103.972V115.56ZM104.816 113.781C105.285 113.781 105.641 113.891 105.885 114.108C106.129 114.327 106.252 114.63 106.252 115.018C106.252 115.293 106.189 115.527 106.063 115.721C105.937 115.915 105.752 116.06 105.508 116.153L106.285 117.548C106.297 117.571 106.303 117.591 106.303 117.61C106.303 117.644 106.29 117.674 106.266 117.698C106.241 117.722 106.212 117.734 106.179 117.734H105.7C105.625 117.734 105.569 117.716 105.534 117.681C105.497 117.646 105.473 117.612 105.457 117.581L104.72 116.267H103.971V117.581C103.971 117.623 103.956 117.66 103.926 117.689C103.896 117.72 103.861 117.734 103.82 117.734H103.363C103.322 117.734 103.285 117.72 103.256 117.689C103.225 117.66 103.211 117.623 103.211 117.581V113.934C103.211 113.892 103.225 113.857 103.256 113.827C103.285 113.796 103.322 113.781 103.363 113.781H104.816L104.816 113.781Z" fill="white"/>
<path d="M109.833 113.781C109.875 113.781 109.91 113.796 109.941 113.827C109.97 113.857 109.985 113.892 109.985 113.933C109.985 113.952 109.982 113.97 109.974 113.984L108.64 116.34V117.581C108.64 117.623 108.625 117.66 108.594 117.689C108.565 117.72 108.529 117.734 108.488 117.734H108.038C107.996 117.734 107.96 117.72 107.93 117.689C107.9 117.66 107.886 117.623 107.886 117.581V116.34L106.551 113.984C106.542 113.97 106.539 113.952 106.539 113.933C106.539 113.892 106.554 113.857 106.584 113.827C106.615 113.796 106.65 113.781 106.691 113.781H107.113C107.189 113.781 107.245 113.8 107.283 113.837C107.32 113.875 107.343 113.904 107.35 113.923L108.263 115.52L109.174 113.923C109.183 113.904 109.205 113.875 109.243 113.837C109.279 113.8 109.336 113.781 109.411 113.781H109.833Z" fill="white"/>
<path d="M147.357 92.815C137.515 92.815 129.538 84.847 129.538 74.9761C129.538 72.5599 130.02 70.2664 130.893 68.1529C133.572 61.6633 139.922 57.1061 147.357 57.1061C157.199 57.1061 165.174 65.1051 165.174 74.9761C165.174 83.5191 159.215 90.6131 151.24 92.3621C150.005 92.665 148.681 92.815 147.357 92.815H147.357ZM147.357 37.1519C138.267 37.1519 129.9 40.3515 123.339 45.6948C114.73 52.7281 109.252 63.4145 109.252 75.3678C109.252 96.4692 147.357 143.378 147.357 143.378C147.357 143.378 164.663 122.067 175.92 101.721C181.398 91.881 185.461 82.2503 185.461 75.3679C185.461 54.2685 168.396 37.1519 147.357 37.1519L147.357 37.1519Z" fill="#85B2EF"/>
<path d="M175.92 101.721C164.663 122.067 147.357 143.378 147.357 143.378C147.357 143.378 109.252 96.4693 109.252 75.3678C109.252 63.4146 114.73 52.7282 123.339 45.6948C124.783 52.6076 127.131 60.5167 130.893 68.1529C130.021 70.2665 129.538 72.5601 129.538 74.9762C129.538 84.8471 137.515 92.8151 147.357 92.8151C148.681 92.8151 150.005 92.665 151.24 92.3622C157.891 96.921 166.018 100.272 175.92 101.721V101.721Z" fill="#578DDD"/>
<path d="M281.487 124.209C277.856 124.209 274.912 121.256 274.912 117.613C274.912 113.971 277.856 111.018 281.487 111.018C285.121 111.018 288.065 113.971 288.065 117.613C288.065 121.256 285.121 124.209 281.487 124.209ZM281.487 103.647C273.718 103.647 267.42 109.965 267.42 117.757C267.42 125.548 281.487 142.873 281.487 142.873C281.487 142.873 295.557 125.549 295.557 117.757C295.557 109.965 289.256 103.647 281.487 103.647Z" fill="#F99746"/>
<path d="M28.5024 133.085C26.4219 133.085 24.7356 131.394 24.7356 129.307C24.7356 127.221 26.4219 125.529 28.5024 125.529C30.5831 125.529 32.2698 127.221 32.2698 129.307C32.2698 131.394 30.5831 133.085 28.5024 133.085ZM28.5024 121.307C24.0515 121.307 20.4434 124.925 20.4434 129.389C20.4434 133.854 28.5024 143.777 28.5024 143.777C28.5024 143.777 36.5621 133.853 36.5621 129.389C36.5621 124.925 32.9536 121.307 28.5024 121.307Z" fill="#85B2EF"/>
<path d="M113.296 143.407H103.998C104.095 143.073 104.409 142.498 105.437 142.33C106.873 142.096 109.358 141.261 109.912 139.421C109.93 139.36 109.947 139.3 109.961 139.239C110.401 137.272 113.603 139.841 113.603 139.841C113.603 139.841 113.612 139.92 113.627 140.055C113.701 140.773 113.888 143.076 113.296 143.407H113.296Z" fill="#2B478B"/>
<path d="M105.818 90.7979C105.818 90.7979 106.304 96.8845 106.876 104.2C107.653 114.137 108.587 126.343 108.68 128.656C108.839 132.671 109.481 139.094 109.481 139.094C109.481 139.094 111.002 140.62 114.044 139.977C114.044 139.977 116.756 130.808 117.531 121.107C117.542 120.948 117.554 120.787 117.566 120.628C118.288 110.751 119.408 89.9546 119.408 89.9546L105.818 90.7979H105.818Z" fill="#2B478B"/>
<path d="M105.818 90.7978C105.818 90.7978 106.304 96.8845 106.876 104.2L117.531 121.107C117.542 120.948 117.554 120.787 117.566 120.628C118.288 110.751 119.408 89.9546 119.408 89.9546L105.818 90.7979L105.818 90.7978Z" fill="#233862"/>
<path d="M108.039 91.5201C108.039 91.5201 116.804 113.561 122.569 123.919C128.334 134.277 130.134 137.167 130.134 137.167C130.134 137.167 133.437 135.843 133.738 134.939C133.738 134.939 131.533 114.943 127.672 110.069C125.491 107.314 122.929 99.0484 122.81 96.1583C122.689 93.267 122.029 87.5469 122.029 87.5469L108.039 91.5201H108.039Z" fill="#2B478B"/>
<path d="M119.572 57.5549C119.572 57.5549 113.64 60.4699 110.221 59.3884C110.221 59.3884 111.063 58.3069 112.536 57.5021C112.418 56.803 112.325 56.1963 112.272 55.6818C112.127 54.4946 112.127 53.8219 112.127 53.8219L114.416 51.9888L116.587 50.2344C116.416 55.1675 119.572 57.5549 119.572 57.5549H119.572Z" fill="#FFB27D"/>
<path d="M122.697 88.6747C122.712 89.0449 121.936 89.466 121.594 89.6244C119.055 90.7596 116.688 91.5509 114.005 91.8145C110.836 92.1443 107.087 91.4184 105.799 91.4457C105.666 91.4457 105.548 91.3922 105.442 91.3C105.35 91.2338 105.286 87.3432 105.35 82.4497C105.35 82.2511 105.35 82.0536 105.365 81.8561V81.79C105.39 79.8767 105.457 77.8721 105.548 75.8678C105.732 71.4617 106.074 67.2145 106.653 64.8667C107.35 62.0967 108.928 60.2632 110.361 58.9309L111.545 57.8755C112.729 58.1132 113.978 58.0472 115.228 57.4274C116.595 56.7547 118.092 56.0002 118.329 56.1844C120.117 57.5167 121.303 60.5401 121.948 64.3653C122.316 66.5681 122.5 69.0348 122.487 71.6199C122.487 72.5697 122.461 73.5457 122.408 74.5089C122.092 79.7322 122.408 84.2697 122.592 86.8938C122.645 87.6589 122.684 88.2524 122.697 88.6746L122.697 88.6747Z" fill="#B64C41"/>
<path d="M122.592 86.8942C93.8558 86.855 117.292 65.4077 117.292 65.4077L121.948 64.3657C122.316 66.5686 122.5 69.0352 122.487 71.6203C122.487 72.5701 122.461 73.5462 122.408 74.5093C122.092 79.7326 122.408 84.2701 122.592 86.8942Z" fill="#A03C37"/>
<path d="M87.2402 86.7542H105.108V68.8345H87.2402V86.7542Z" fill="#E69D43"/>
<path d="M104.365 86.7542H112.546V68.8345H104.365V86.7542Z" fill="#D57912"/>
<path d="M102.426 78.0593L101.361 77.7164C101.361 77.7164 100.617 75.2471 98.1002 76.3528C98.1002 76.3528 97.0786 76.8957 97.5285 77.539C97.9784 78.181 97.8961 77.843 98.511 78.7689C99.1264 79.6946 100.099 80.1348 100.875 79.7846L101.759 79.8095L102.425 78.0594L102.426 78.0593Z" fill="#FFB27D"/>
<path d="M119.575 57.5483C119.575 57.5483 126.082 67.9285 119.15 79.9238C116.986 83.6679 100.642 80.1084 100.642 80.1084C100.642 80.1084 100.005 78.954 101.71 77.7386C101.71 77.7386 112.592 75.8912 113.889 75.5814C115.04 75.3073 114.272 64.6996 115.588 61.6217C116.903 58.5439 119.575 57.5483 119.575 57.5483H119.575Z" fill="#B64C41"/>
<path d="M116.625 52.1205C116.625 52.1205 115.127 54.9037 112.272 55.6817C112.127 54.4946 112.127 53.8218 112.127 53.8218L114.416 51.9888L116.625 52.1205H116.625Z" fill="#ED985F"/>
<path d="M111.084 53.7415C111.084 53.7415 116.743 54.6843 117.274 51.1412C117.805 47.5981 118.893 45.3335 115.303 44.5819C111.713 43.83 110.807 45.0759 110.342 46.2154C109.878 47.3547 109.627 53.4048 111.084 53.7415Z" fill="#FFB27D"/>
<path d="M117.238 51.3857C117.238 51.3857 117.123 46.6397 111.968 45.8779C108.437 45.3562 108.73 42.7905 109.133 42.3218C109.133 42.3218 113.698 42.3595 116.442 43.0529C120.59 44.101 117.851 50.6799 117.238 51.3857Z" fill="#233862"/>
<path d="M133.736 135.681L133.462 135.328L130.346 137.079C130.316 137.676 130.301 138.368 130.334 138.974C130.356 139.385 130.333 139.804 130.26 140.201C130.195 140.511 129.865 141.834 128.899 142.182C127.804 142.576 127.716 143.42 129.585 143.407C129.921 143.405 130.249 143.402 130.562 143.402C131.729 143.399 132.725 142.603 133.044 141.477C133.169 141.034 133.4 140.536 133.801 140.007C134.292 139.43 134.871 138.921 135.057 138.291C135.378 137.207 133.736 135.681 133.736 135.681Z" fill="#2B478B"/>
<path d="M168.921 113.167L169.536 112.665L161.299 101.869L158.326 101.744L168.921 113.167Z" fill="#A03C37"/>
<path d="M179.683 113.167L180.193 112.665L173.377 101.869L170.918 101.744L179.683 113.167Z" fill="#A03C37"/>
<path d="M229.978 85.0291C229.978 82.981 228.362 81.3193 226.368 81.3193C224.372 81.3193 222.754 82.981 222.754 85.0291C222.754 87.0786 224.372 88.7387 226.368 88.7387C228.362 88.7387 229.978 87.0786 229.978 85.0291Z" fill="#B64C41"/>
<path d="M184.158 135.042H220.886C221.285 135.042 221.611 134.712 221.611 134.309V130.827C221.611 130.424 221.285 130.094 220.886 130.094H188.442C188.042 130.094 187.716 130.424 187.716 130.827L184.158 135.042Z" fill="#B64C41"/>
<path d="M183.834 132.315C183.834 126.235 178.919 121.307 172.857 121.307C166.795 121.307 161.881 126.235 161.881 132.315C161.881 138.395 166.795 143.324 172.857 143.324C178.919 143.324 183.834 138.395 183.834 132.315Z" fill="#233862"/>
<path d="M178.455 132.315C178.455 129.216 175.949 126.704 172.859 126.704C169.768 126.704 167.264 129.216 167.264 132.315C167.264 135.414 169.768 137.927 172.859 137.927C175.949 137.927 178.455 135.414 178.455 132.315Z" fill="#ED7D2B"/>
<path d="M229.276 116.776C230.827 116.281 232.476 116.015 234.186 116.015C235.394 116.015 236.573 116.148 237.704 116.401C244.207 117.845 249.254 123.208 250.254 129.879C250.45 131.162 249.451 132.315 248.159 132.315H248.087C247.39 132.315 246.813 131.781 246.748 131.084C246.129 124.68 240.73 119.656 234.186 119.656C232.233 119.656 230.378 120.104 228.727 120.903C224.492 122.949 221.564 127.295 221.564 132.315H217.934C217.934 125.042 222.706 118.867 229.276 116.776Z" fill="#B64C41"/>
<path d="M212.436 130.094L217.935 132.315C221.743 124.887 225.634 121.242 228.959 119.445C234.944 116.209 239.108 118.949 237.705 116.401L227.44 94.6775C226.478 93.3363 225.224 92.3181 223.823 91.6524C222.299 90.9301 220.601 90.6261 218.914 90.7821C216.955 90.9629 215.674 92.945 216.298 94.8158C217.642 98.8472 218.159 102.899 218.159 106.747C218.159 119.55 212.436 130.094 212.436 130.094V130.094Z" fill="#B64C41"/>
<path d="M218.041 93.2939L222.184 91.7068C222.746 91.7068 223.822 92.2177 223.822 91.6523L223.209 81.506C223.209 80.9409 222.746 80.4785 222.184 80.4785H219.513C218.95 80.4785 216.689 81.5617 216.85 83.5921L216.139 93.8202C216.139 94.3852 217.477 93.2939 218.041 93.2939Z" fill="#B64C41"/>
<path d="M147.481 102.246H175.07C175.869 102.246 176.523 101.591 176.523 100.79V99.7908C176.523 98.9903 175.869 98.334 175.07 98.334H147.481C146.682 98.334 146.029 98.9903 146.029 99.7908V100.79C146.029 101.591 146.682 102.246 147.481 102.246Z" fill="#A03C37"/>
<path d="M245.163 132.315C245.163 126.235 240.249 121.307 234.187 121.307C228.125 121.307 223.211 126.235 223.211 132.315C223.211 138.395 228.125 143.324 234.187 143.324C240.249 143.324 245.163 138.395 245.163 132.315Z" fill="#233862"/>
<path d="M228.59 132.315C228.59 133.26 228.824 134.151 229.236 134.932C229.263 134.983 229.292 135.032 229.321 135.082C230.28 136.781 232.101 137.927 234.186 137.927C237.275 137.927 239.783 135.414 239.783 132.315C239.783 129.979 238.36 127.978 236.337 127.135C236.316 127.125 236.294 127.116 236.272 127.108C235.626 126.846 234.922 126.704 234.186 126.704C231.098 126.704 228.59 129.216 228.59 132.315Z" fill="#F99746"/>
<path d="M193.983 110.142C193.983 110.142 191.148 121.413 200.708 131.805L177.199 130.094L180.193 107.344L193.983 110.142H193.983Z" fill="#B64C41"/>
<path d="M150.732 133.586C150.732 133.986 150.895 134.35 151.159 134.615C151.422 134.879 151.786 135.042 152.184 135.042H187.396C188.195 135.042 188.848 134.387 188.848 133.586L188.381 110.489L176.524 109.76C160.729 109.76 150.732 117.745 150.732 133.586V133.586Z" fill="#B64C41"/>
<path d="M222.754 84.819C222.754 85.1774 222.788 85.526 222.85 85.8667C223.34 88.5119 225.655 90.514 228.435 90.514V79.1226C225.3 79.1226 222.754 81.6731 222.754 84.8189L222.754 84.819Z" fill="#D15050"/>
<path d="M213.791 85.5873C213.813 85.5873 214.048 85.5411 214.07 85.5375L220.32 83.798C220.567 83.7494 220.74 83.442 220.703 83.1097C220.666 82.7787 220.436 82.5491 220.188 82.5978L213.924 83.8242C213.677 83.8725 213.479 84.2498 213.421 84.576C213.322 85.1226 213.57 85.5874 213.791 85.5874V85.5873Z" fill="#2B478B"/>
<path d="M228.891 119.884C228.833 120.235 228.777 120.574 228.727 120.903C228.744 120.895 228.758 120.886 228.775 120.879C230.415 120.095 232.252 119.655 234.186 119.655C240.73 119.655 246.129 124.68 246.748 131.083C246.814 131.78 247.39 132.315 248.087 132.315H248.159C249.451 132.315 250.45 131.162 250.254 129.879C249.259 123.229 244.241 117.881 237.771 116.416C237.75 116.41 237.728 116.406 237.704 116.401L227.439 94.6774C226.477 93.3362 225.223 92.3181 223.822 91.6523C225.573 94.6055 230.4 104.049 229.276 116.776C229.199 117.65 229.093 118.539 228.958 119.445C228.937 119.59 228.912 119.737 228.891 119.884Z" fill="#B64C41"/>
<path d="M170.402 105.628V109.06C170.402 109.655 170.887 110.142 171.481 110.142H193.982C194.575 110.142 195.062 109.655 195.062 109.06V105.628C195.062 105.032 194.575 104.546 193.982 104.546H171.481C170.887 104.546 170.402 105.032 170.402 105.628Z" fill="#F99746"/>
<path d="M153.521 135.042H187.395C187.395 135.042 189.462 122.463 181.838 118.215C180.002 117.192 177.695 116.84 175.183 117.087C167.262 117.865 157.287 124.596 153.521 135.042Z" fill="#A03C37"/>
<path d="M222.852 85.8667C223.341 88.5119 225.656 90.514 228.436 90.514V87.3365C226.767 87.4026 224.363 87.2205 222.852 85.8667Z" fill="#A03C37"/>
<path d="M177.525 110.142H193.982C194.575 110.142 195.062 109.655 195.062 109.06V105.628C195.062 105.032 194.575 104.546 193.982 104.546H182.707C181.728 105.934 179.886 108.286 177.525 110.142Z" fill="#ED7D2B"/>
<path d="M153.521 135.042H167.589C176.081 130.719 175.563 120.293 175.183 117.087C167.262 117.865 157.287 124.596 153.521 135.042Z" fill="#D15050"/>
<path d="M229.32 135.082C230.28 136.781 232.101 137.927 234.186 137.927C237.275 137.927 239.783 135.414 239.783 132.315C239.783 129.979 238.36 127.978 236.337 127.135C235.85 129.563 234.283 134.064 229.32 135.082Z" fill="#ED7D2B"/>
<path d="M228.891 119.884C228.833 120.235 228.777 120.574 228.727 120.903C228.744 120.895 228.758 120.886 228.775 120.879C230.8 118.999 235.083 117.334 237.771 116.416C237.75 116.41 237.728 116.406 237.704 116.401L227.439 94.6774C226.477 93.3362 225.223 92.3181 223.822 91.6523C225.573 94.6055 230.4 104.049 229.276 116.776C229.199 117.65 229.093 118.539 228.958 119.445C228.937 119.59 228.912 119.737 228.891 119.884H228.891Z" fill="#A03C37"/>
<path d="M156.723 98.3343H174.258V83.8325H156.723V98.3343Z" fill="#D3671E"/>
<path d="M147.953 98.3343H165.489V83.8325H147.953V98.3343Z" fill="#F1A34F"/>
<path d="M174.248 94.6566H171.469L171.714 93.8726L171.469 93.312H174.248V94.6566Z" fill="#F1A34F"/>
<path d="M147.953 93.4466V98.3343H165.489V83.8325H162.382L147.953 93.4466Z" fill="#E78B37"/>
<path d="M147.953 87.0844H147.954V85.7397H147.953V87.0844Z" fill="#E5BCA1"/>
<path d="M150.731 87.0844H147.953V85.7397H150.731L150.486 86.3003L150.731 87.0844Z" fill="#E78B37"/>
<path d="M147.953 96.0008H150.732L150.487 95.2167L150.732 94.6562H147.953V96.0008Z" fill="#F1A34F"/>
<path d="M192.026 70.6898C188.995 71.9246 183.453 69.2848 183.453 69.2848C183.453 69.2848 185.292 67.6514 185.643 64.5582C185.662 64.4022 185.674 64.2433 185.684 64.0805C186.004 63.9664 186.606 63.7511 187.251 63.5215L189.937 65.355C189.937 65.355 190 66.2573 189.905 67.8355C189.89 68.1109 189.868 68.4067 189.84 68.7227C191.234 69.3499 192.026 70.6898 192.026 70.6898H192.026Z" fill="#FFB27D"/>
<path d="M189.937 65.355C189.937 65.355 190 66.2573 189.905 67.8355C187.462 67.3901 186.118 65.4107 185.643 64.5582C185.662 64.4022 185.674 64.2433 185.684 64.0805C186.004 63.9664 186.606 63.7511 187.251 63.5215L189.937 65.355Z" fill="#ED975D"/>
<path d="M190.432 66.6691C190.432 66.6691 185.211 66.4983 185.367 63.2389C185.522 59.9793 184.954 57.7622 188.294 57.7334C191.635 57.7043 192.222 58.9793 192.434 60.0798C192.645 61.1806 191.794 66.6293 190.432 66.6691Z" fill="#FFB27D"/>
<path d="M185.643 64.5579C185.643 64.5579 185.439 63.474 186.028 62.7587C186.028 62.7587 185.648 61.6956 186.056 61.4572C186.464 61.219 186.676 62.127 186.856 61.956C187.034 61.7853 187.824 60.9817 188.068 59.9205C188.311 58.8598 191.931 59.6201 192.359 59.7481C192.785 59.8762 189.956 54.5809 186.9 55.8348C183.845 57.089 183.615 58.6626 183.968 59.9372C184.321 61.2122 184.289 64.2958 185.644 64.5579H185.643Z" fill="#2B478B"/>
<path d="M180.648 95.6684C180.648 95.6684 181.011 102.065 182.463 103.887C183.916 105.709 211.749 105.002 211.749 105.002C211.749 105.002 211.87 100.901 210.78 99.8463C209.691 98.7915 204.609 95.7618 188.381 94.0449L180.649 95.6685L180.648 95.6684Z" fill="#2B478B"/>
<path d="M180.278 82.2796C180.731 87.7738 180.133 96.1307 180.65 97.5795C181.093 98.8283 186.155 98.0856 188.175 97.6695C188.923 97.5132 189.829 97.2946 190.765 97.0332C193.373 96.3058 196.217 95.2676 196.523 94.4954C196.534 94.4646 196.544 94.4362 196.55 94.4066C196.579 94.2942 196.573 94.189 196.545 94.0838C196.471 93.7929 196.236 93.4843 196.101 92.9487C196.054 92.7605 196.018 92.5441 196.006 92.2911C195.959 91.2955 195.962 90.1388 195.927 88.8936C195.924 88.7799 195.92 88.6641 195.917 88.5495C195.914 88.3945 195.912 88.2254 195.893 88.0704L195.892 88.0138C195.892 87.9853 195.891 87.9558 195.89 87.9262C195.846 86.3914 195.757 84.7784 195.654 83.1771C195.621 82.6792 195.586 82.1826 195.548 81.6918C195.535 81.518 195.521 81.3466 195.508 81.1751C195.48 80.8546 195.455 80.5363 195.425 80.2229C195.198 77.762 194.89 75.572 194.485 74.1889C193.821 71.9326 192.358 70.4616 191.027 69.384L190.064 68.6399C188.99 68.8512 187.719 68.7104 186.569 68.2212C185.326 67.6884 184.897 67.3073 184.68 67.4517C181.808 69.447 179.742 75.5613 180.278 82.2794L180.278 82.2796Z" fill="#B64C41"/>
<path d="M201.734 126.047C201.734 126.047 201.981 130.029 202.748 130.087C202.851 130.094 206.644 130.094 206.644 130.094L211.487 130.066C211.487 130.066 211.455 128.896 210.04 128.648C208.624 128.401 206.255 127.404 205.397 125.527C204.495 123.553 201.734 126.047 201.734 126.047Z" fill="#1C4575"/>
<path d="M200.722 126.308C200.722 126.308 201.659 127.029 203.566 127.121C204.057 127.145 204.508 127.119 204.902 127.068C205.954 126.934 206.61 126.63 206.61 126.63L211.749 105.003C211.749 105.003 206.182 100.125 203.278 103.158C202.9 103.553 202.576 104.239 202.301 105.133C200.458 111.096 200.722 126.308 200.722 126.308L200.722 126.308Z" fill="#2B478B"/>
<path d="M188.381 78.103C188.381 78.103 191.984 91.3358 196.1 92.9488C196.053 92.7607 196.018 92.5443 196.006 92.2913C195.959 91.2957 195.961 90.1389 195.927 88.8938C195.924 88.7801 195.92 88.6642 195.917 88.5497C195.914 88.3947 195.912 88.2256 195.893 88.0706L195.892 88.014C195.892 87.9855 195.89 87.9559 195.889 87.9264C195.846 86.3916 195.756 84.7785 195.654 83.1773C195.62 82.6794 195.585 82.1827 195.547 81.692C193.735 79.496 191.277 77.9185 188.381 78.103L188.381 78.103Z" fill="#A03C37"/>
<path d="M209.996 83.2006C209.996 83.2006 211.566 83.3212 211.969 83.2006C212.372 83.079 214.268 81.9459 214.955 82.1895C215.64 82.4319 217.374 84.2119 216.931 85.0205C216.931 85.0205 216.124 85.0406 215.378 84.2721C214.631 83.5033 213.825 84.0295 213.905 84.1312C213.986 84.2316 215.156 84.6976 214.955 84.8998C214.753 85.1023 213.22 85.0618 212.857 84.8183C212.494 84.5757 209.791 84.8797 209.791 84.8797L209.996 83.2004V83.2006Z" fill="#FFB27D"/>
<path d="M188.381 71.1245C188.381 71.1245 198.141 79.4674 200.709 80.2728C203.278 81.0769 212.354 82.8459 212.354 82.8459C212.354 82.8459 212.604 85.0006 211.752 85.8095C211.752 85.8095 200.091 85.1319 198.64 84.8234C197.187 84.5157 186.366 78.8915 185.484 78.467C184.601 78.0423 184.739 70.4367 188.381 71.1245H188.381Z" fill="#B64C41"/>
<path d="M200.722 126.307C200.722 126.307 201.659 127.028 203.566 127.121C204.057 127.145 204.508 127.118 204.902 127.068C201.971 123.351 202.301 105.132 202.301 105.132C200.458 111.096 200.722 126.307 200.722 126.307H200.722Z" fill="#233862"/>
<path d="M183.197 60.1531V60.2027C183.197 60.3399 183.26 60.4576 183.349 60.5075C183.38 60.5243 183.412 60.534 183.445 60.534H195.817C195.954 60.534 196.066 60.3848 196.066 60.2027V60.1531C196.066 59.9711 195.954 59.8216 195.817 59.8216L193.055 59.466C192.798 57.4075 191.433 55.7279 189.632 55.1488H189.629C189.19 55.0068 188.725 54.9316 188.244 54.9316C185.705 54.9316 183.625 57.0349 183.408 59.716C183.406 59.7475 183.404 59.7779 183.401 59.8094C183.369 59.8324 183.352 59.8472 183.349 59.8484C183.26 59.8979 183.197 60.0169 183.197 60.1531Z" fill="#B64C41"/>
<path d="M187.378 59.716C186.456 54.8227 189.525 55.1367 189.629 55.1488C189.189 55.0068 188.725 54.9316 188.244 54.9316C185.705 54.9316 183.625 57.0349 183.408 59.716H187.378Z" fill="#A03C37"/>
<path d="M175.356 44.7672C175.216 44.7672 175.081 44.6957 175.003 44.5664C174.885 44.3708 174.948 44.1164 175.143 43.9986C175.152 43.9932 175.363 43.8658 175.769 43.6394C175.967 43.5281 176.219 43.5995 176.33 43.7993C176.441 43.9991 176.369 44.251 176.171 44.3622C175.78 44.5813 175.571 44.7068 175.569 44.7077C175.503 44.7479 175.429 44.767 175.356 44.767V44.7672Z" fill="#FF9136"/>
<path d="M215.641 33.9646C215.416 33.9646 215.232 33.7823 215.23 33.5551C215.226 33.3266 215.409 33.1394 215.638 33.1368C216.114 33.1317 216.591 33.1309 217.073 33.1346C217.3 33.1365 217.484 33.3231 217.482 33.5518C217.479 33.779 217.295 33.9625 217.069 33.9625H217.066C216.59 33.9586 216.117 33.9595 215.646 33.9646H215.641H215.641ZM219.922 34.041L219.902 34.0405C219.432 34.0183 218.955 34.0006 218.485 33.9878C218.256 33.9815 218.077 33.7911 218.083 33.5627C218.09 33.3342 218.281 33.1515 218.508 33.1603C218.983 33.1733 219.466 33.1912 219.941 33.2137C220.169 33.2243 220.345 33.4183 220.334 33.6466C220.325 33.8681 220.142 34.041 219.922 34.041H219.922ZM212.789 34.0495C212.57 34.0495 212.387 33.8771 212.376 33.6555C212.365 33.4275 212.541 33.2333 212.769 33.2222C213.248 33.1993 213.731 33.1804 214.203 33.1663C214.431 33.1561 214.621 33.3393 214.627 33.5677C214.634 33.796 214.455 33.9868 214.227 33.9936C213.76 34.0077 213.283 34.0262 212.809 34.0493L212.789 34.0495H212.789ZM222.771 34.2313C222.758 34.2313 222.746 34.2308 222.734 34.2299C222.267 34.189 221.791 34.1525 221.32 34.121C221.092 34.1058 220.92 33.9084 220.935 33.6804C220.951 33.4526 221.146 33.2805 221.375 33.2949C221.851 33.3269 222.332 33.3641 222.804 33.4049C223.033 33.4246 223.2 33.6252 223.18 33.8531C223.164 34.0688 222.983 34.2313 222.771 34.2313ZM209.94 34.2398C209.728 34.2398 209.548 34.0767 209.529 33.8608C209.51 33.633 209.678 33.4328 209.906 33.4137C210.386 33.3728 210.867 33.3361 211.336 33.3048C211.564 33.2915 211.76 33.4625 211.775 33.6905C211.79 33.9186 211.618 34.1157 211.39 34.1309C210.927 34.1619 210.451 34.1979 209.975 34.2383C209.964 34.2393 209.952 34.2398 209.94 34.2398ZM207.099 34.5321C206.895 34.5321 206.716 34.3778 206.69 34.1676C206.663 33.9408 206.825 33.7345 207.051 33.7073C207.528 33.6498 208.008 33.5961 208.477 33.5478C208.703 33.5229 208.906 33.69 208.93 33.9173C208.953 34.1448 208.788 34.348 208.562 34.3712C208.096 34.419 207.621 34.4722 207.15 34.529C207.132 34.5312 207.116 34.532 207.099 34.532L207.099 34.5321ZM225.609 34.5362C225.592 34.5362 225.575 34.5352 225.555 34.5328C225.09 34.4731 224.618 34.4174 224.147 34.3669C223.921 34.3425 223.757 34.1386 223.781 33.9113C223.805 33.684 224.007 33.5189 224.234 33.5437C224.709 33.595 225.189 33.6514 225.659 33.7118C225.886 33.7409 226.047 33.948 226.016 34.1748C225.992 34.3839 225.813 34.5363 225.608 34.5363L225.609 34.5362ZM204.272 34.9233C204.072 34.9233 203.896 34.7775 203.864 34.5732C203.83 34.3473 203.984 34.1357 204.21 34.1006C204.682 34.0269 205.16 33.9565 205.628 33.8917C205.854 33.86 206.062 34.0186 206.094 34.2452C206.125 34.4716 205.966 34.6806 205.741 34.7118C205.278 34.7762 204.805 34.8455 204.336 34.9188C204.314 34.922 204.293 34.9234 204.272 34.9234L204.272 34.9233ZM228.432 34.9575C228.408 34.9575 228.384 34.9558 228.362 34.9515C227.894 34.8722 227.424 34.7969 226.961 34.7278C226.735 34.6941 226.58 34.4837 226.614 34.2576C226.648 34.0315 226.858 33.8745 227.082 33.9092C227.552 33.9791 228.029 34.0553 228.5 34.1355C228.724 34.1737 228.876 34.3875 228.837 34.6129C228.803 34.8148 228.63 34.9575 228.432 34.9575ZM201.459 35.4109C201.264 35.4109 201.091 35.2725 201.054 35.074C201.011 34.8497 201.158 34.6327 201.382 34.5904C201.853 34.5006 202.328 34.4143 202.793 34.3335C203.019 34.2955 203.232 34.4457 203.271 34.671C203.309 34.8965 203.159 35.1104 202.934 35.1492C202.471 35.2291 202.002 35.3148 201.536 35.4036C201.511 35.4084 201.485 35.4109 201.459 35.4109ZM231.234 35.4962C231.207 35.4962 231.176 35.4931 231.15 35.4871C230.689 35.3889 230.221 35.2939 229.758 35.2046C229.534 35.1619 229.387 34.9449 229.43 34.7205C229.474 34.4958 229.688 34.3486 229.913 34.3919C230.383 34.4821 230.855 34.578 231.321 34.6775C231.542 34.7251 231.685 34.9451 231.639 35.1687C231.596 35.3631 231.424 35.4962 231.234 35.4962H231.234ZM198.663 35.9906C198.474 35.9906 198.303 35.8598 198.261 35.667C198.212 35.4438 198.351 35.2225 198.574 35.1727C199.042 35.0675 199.513 34.9657 199.975 34.8698C200.199 34.8242 200.416 34.9679 200.464 35.1915C200.51 35.4152 200.366 35.6343 200.143 35.6805C199.685 35.7753 199.217 35.8764 198.754 35.9806C198.723 35.9872 198.693 35.9906 198.663 35.9906ZM234.012 36.1528C233.978 36.1528 233.944 36.1485 233.908 36.1395C233.452 36.021 232.987 35.9065 232.531 35.7986C232.309 35.7464 232.174 35.5234 232.225 35.3009C232.278 35.0785 232.5 34.9403 232.722 34.9928C233.182 35.1019 233.652 35.2179 234.115 35.3381C234.335 35.3949 234.47 35.6208 234.412 35.8423C234.364 36.0287 234.197 36.1528 234.012 36.1528ZM195.887 36.6602C195.704 36.6602 195.536 36.5364 195.488 36.3494C195.431 36.1281 195.563 35.9022 195.785 35.8454C196.244 35.7267 196.713 35.6099 197.176 35.4979C197.398 35.445 197.621 35.5814 197.674 35.8035C197.727 36.0259 197.591 36.2494 197.37 36.3028C196.91 36.4138 196.445 36.5296 195.99 36.6472C195.956 36.6561 195.922 36.6602 195.887 36.6602ZM236.761 36.9269C236.72 36.9269 236.679 36.9211 236.64 36.9091C236.192 36.7721 235.733 36.6377 235.28 36.5096C235.061 36.4479 234.931 36.2195 234.993 35.9993C235.056 35.779 235.282 35.6509 235.502 35.7128C235.963 35.8424 236.425 35.9786 236.881 36.1171C237.098 36.1836 237.221 36.4149 237.156 36.6335C237.101 36.8119 236.937 36.927 236.761 36.927L236.761 36.9269ZM193.133 37.4173C192.955 37.4173 192.79 37.2998 192.737 37.1189C192.674 36.8993 192.799 36.6698 193.019 36.606C193.477 36.472 193.942 36.3404 194.398 36.215C194.618 36.155 194.845 36.2841 194.905 36.5047C194.965 36.725 194.837 36.9528 194.617 37.0131C194.164 37.1377 193.704 37.2679 193.249 37.4006C193.211 37.4119 193.172 37.4173 193.133 37.4173L193.133 37.4173ZM239.471 37.8178C239.427 37.8178 239.382 37.8103 239.336 37.7944C238.887 37.6366 238.436 37.4828 237.993 37.3373C237.776 37.2663 237.658 37.0321 237.727 36.8149C237.8 36.5978 238.031 36.4796 238.248 36.5506C238.699 36.6982 239.155 36.8537 239.608 37.0132C239.825 37.0892 239.939 37.3255 239.861 37.5409C239.801 37.7112 239.642 37.8179 239.471 37.8179V37.8178ZM190.405 38.2593C190.23 38.2593 190.068 38.1484 190.012 37.9733C189.941 37.7559 190.06 37.5223 190.277 37.4519C190.731 37.3041 191.191 37.1583 191.645 37.0182C191.863 36.9508 192.093 37.0736 192.16 37.2922C192.228 37.5107 192.105 37.7423 191.887 37.8096C191.437 37.9482 190.981 38.0927 190.532 38.2391C190.49 38.2528 190.447 38.2593 190.405 38.2593H190.405ZM242.143 38.8239C242.092 38.8239 242.041 38.8145 241.991 38.7942C241.554 38.6189 241.108 38.446 240.669 38.28C240.455 38.1997 240.346 37.9613 240.428 37.747C240.508 37.533 240.746 37.4246 240.959 37.5052C241.405 37.673 241.856 37.8481 242.297 38.0256C242.509 38.1108 242.613 38.3514 242.526 38.5637C242.463 38.7255 242.306 38.8239 242.143 38.8239ZM187.702 39.1853C187.534 39.1853 187.374 39.0798 187.314 38.9111C187.236 38.6958 187.348 38.4591 187.563 38.3817C188.013 38.2196 188.47 38.0595 188.917 37.9065C189.133 37.8327 189.367 37.9478 189.44 38.1642C189.514 38.3807 189.399 38.616 189.183 38.6898C188.74 38.8417 188.288 39.0001 187.841 39.1609C187.795 39.1776 187.748 39.1853 187.702 39.1853ZM244.771 39.9434C244.715 39.9434 244.658 39.9316 244.602 39.9066C244.173 39.7129 243.734 39.5212 243.302 39.3367C243.093 39.2474 242.994 39.0046 243.083 38.7939C243.172 38.5835 243.416 38.4856 243.625 38.5749C244.062 38.7615 244.506 38.9558 244.94 39.1519C245.149 39.2457 245.241 39.4906 245.147 39.6991C245.079 39.8525 244.928 39.9434 244.771 39.9434ZM185.029 40.1937C184.865 40.1937 184.71 40.0946 184.646 39.9316C184.562 39.7191 184.666 39.4787 184.878 39.395C185.324 39.2187 185.774 39.0448 186.217 38.8779C186.43 38.7974 186.668 38.9056 186.748 39.1195C186.828 39.3337 186.72 39.5721 186.508 39.6527C186.068 39.8181 185.622 39.9902 185.181 40.1649C185.131 40.1844 185.08 40.1936 185.029 40.1936V40.1937ZM247.348 41.1725C247.286 41.1725 247.223 41.1582 247.163 41.1284C246.741 40.9158 246.312 40.7059 245.89 40.504C245.682 40.406 245.596 40.1589 245.692 39.9526C245.791 39.746 246.037 39.6586 246.244 39.7564C246.671 39.9608 247.105 40.1734 247.534 40.3884C247.737 40.491 247.819 40.7398 247.717 40.9438C247.645 41.0888 247.5 41.1724 247.348 41.1724L247.348 41.1725ZM182.389 41.2859C182.229 41.2859 182.077 41.1923 182.009 41.0357C181.92 40.8256 182.016 40.5824 182.225 40.4919C182.663 40.3031 183.107 40.1149 183.547 39.9329C183.758 39.8457 184 39.9465 184.087 40.1579C184.173 40.3693 184.073 40.6111 183.862 40.6982C183.426 40.8786 182.985 41.0651 182.552 41.252C182.499 41.2749 182.444 41.2859 182.389 41.2859H182.389ZM179.786 42.4638C179.63 42.4638 179.483 42.3763 179.412 42.2267C179.314 42.0198 179.402 41.7732 179.609 41.6757C180.036 41.4733 180.474 41.2705 180.913 41.0726C181.121 40.9783 181.364 41.0712 181.459 41.2796C181.552 41.4882 181.459 41.7333 181.251 41.8272C180.819 42.0231 180.385 42.224 179.961 42.4242C179.905 42.451 179.845 42.4639 179.786 42.4639V42.4638ZM249.871 42.5081C249.806 42.5081 249.736 42.4912 249.673 42.4558C249.258 42.2259 248.839 41.9984 248.424 41.7792C248.224 41.6725 248.147 41.4222 248.253 41.2201C248.359 41.0176 248.607 40.9405 248.81 41.047C249.229 41.2687 249.654 41.4992 250.073 41.7319C250.271 41.8428 250.346 42.0946 250.235 42.2946C250.158 42.431 250.018 42.5081 249.871 42.5081H249.871ZM177.226 43.7364C177.076 43.7364 176.933 43.6554 176.859 43.5139C176.754 43.3112 176.832 43.0613 177.035 42.9556C177.446 42.7401 177.877 42.52 178.315 42.3024C178.519 42.2013 178.768 42.2851 178.868 42.4895C178.97 42.6946 178.886 42.943 178.682 43.0443C178.249 43.2595 177.823 43.4764 177.416 43.6892C177.356 43.7215 177.29 43.7364 177.226 43.7364ZM252.34 43.9463C252.265 43.9463 252.193 43.9268 252.125 43.8858C251.723 43.6401 251.313 43.3955 250.905 43.1583C250.71 43.0434 250.642 42.7901 250.758 42.5926C250.871 42.3951 251.125 42.3278 251.32 42.4427C251.732 42.6826 252.147 42.9302 252.554 43.1788C252.75 43.2978 252.81 43.5525 252.692 43.7477C252.615 43.8755 252.48 43.9465 252.34 43.9465L252.34 43.9463ZM254.741 45.487C254.664 45.487 254.585 45.4645 254.515 45.4169C254.124 45.1548 253.724 44.8928 253.329 44.6385C253.136 44.5154 253.078 44.2595 253.201 44.0667C253.324 43.8742 253.579 43.8178 253.772 43.941C254.172 44.1986 254.578 44.4638 254.973 44.7294C255.164 44.8566 255.214 45.1136 255.086 45.3036C255.007 45.4227 254.877 45.4871 254.742 45.4871L254.741 45.487ZM257.078 47.1321C256.991 47.1321 256.907 47.1061 256.832 47.0516C256.453 46.7721 256.068 46.4928 255.682 46.2215C255.496 46.0902 255.45 45.8319 255.583 45.6449C255.713 45.4577 255.971 45.4127 256.157 45.5441C256.547 45.819 256.941 46.102 257.322 46.3849C257.507 46.5207 257.546 46.7799 257.411 46.964C257.329 47.074 257.206 47.1322 257.078 47.1322L257.078 47.1321ZM259.335 48.8813C259.243 48.8813 259.152 48.851 259.077 48.7888C258.713 48.4936 258.337 48.1969 257.963 47.9071C257.784 47.7676 257.751 47.5077 257.89 47.3267C258.03 47.1459 258.288 47.1125 258.469 47.2523C258.848 47.5455 259.226 47.8464 259.595 48.1459C259.774 48.2896 259.8 48.5499 259.656 48.7281C259.574 48.8288 259.455 48.8814 259.335 48.8814V48.8813ZM261.51 50.7334C261.411 50.7334 261.314 50.6991 261.235 50.6287C260.883 50.3146 260.524 50.0009 260.167 49.6962C259.993 49.5482 259.971 49.287 260.119 49.1126C260.266 48.9386 260.528 48.9172 260.7 49.0653C261.064 49.3741 261.428 49.6923 261.785 50.0105C261.956 50.1624 261.97 50.4243 261.818 50.5948C261.736 50.6867 261.623 50.7334 261.51 50.7334ZM263.593 52.6879C263.489 52.6879 263.386 52.6487 263.306 52.5694C262.971 52.2405 262.626 51.9097 262.281 51.5866C262.115 51.4306 262.108 51.1687 262.262 51.0016C262.419 50.8345 262.679 50.8261 262.846 50.982C263.195 51.3095 263.545 51.6448 263.883 51.9786C264.047 52.1387 264.049 52.4009 263.89 52.5638C263.808 52.6466 263.702 52.6879 263.593 52.6879ZM265.582 54.7408C265.472 54.7408 265.361 54.6961 265.279 54.6078C264.96 54.2627 264.632 53.9157 264.304 53.5767C264.145 53.4127 264.15 53.1505 264.314 52.9912C264.478 52.8321 264.739 52.8357 264.898 52.9997C265.23 53.3439 265.563 53.6959 265.886 54.0457C266.041 54.2136 266.031 54.4755 265.862 54.6308C265.783 54.7042 265.681 54.7408 265.582 54.7408ZM267.468 56.8887C267.35 56.8887 267.232 56.8384 267.152 56.7405C266.851 56.3804 266.54 56.018 266.229 55.6626C266.077 55.491 266.094 55.2296 266.265 55.0783C266.436 54.9274 266.697 54.9442 266.848 55.1156C267.164 55.476 267.48 55.8438 267.784 56.2091C267.929 56.3842 267.907 56.6454 267.733 56.7922C267.656 56.857 267.56 56.8887 267.468 56.8887ZM269.245 59.1276C269.12 59.1276 268.997 59.071 268.915 58.9634C268.633 58.5886 268.341 58.2108 268.047 57.841C267.904 57.6623 267.933 57.4019 268.112 57.2594C268.29 57.1172 268.551 57.1467 268.693 57.3254C268.992 57.7005 269.286 58.0835 269.575 58.4639C269.711 58.646 269.677 58.9058 269.493 59.0436C269.419 59.1002 269.332 59.1276 269.245 59.1276H269.245ZM270.911 61.4516C270.779 61.4516 270.648 61.3885 270.569 61.271C270.304 60.8805 270.029 60.4889 269.756 60.107C269.624 59.9213 269.665 59.6625 269.85 59.5293C270.036 59.396 270.294 59.438 270.427 59.6238C270.704 60.011 270.981 60.4083 271.251 60.8044C271.379 60.9935 271.331 61.2511 271.143 61.3798C271.073 61.4285 270.991 61.4516 270.911 61.4516H270.911ZM272.459 63.8556C272.319 63.8556 272.184 63.7853 272.107 63.6577C271.861 63.2566 271.608 62.852 271.353 62.4549C271.23 62.2628 271.285 62.0066 271.476 61.8827C271.668 61.7584 271.922 61.8138 272.047 62.0057C272.305 62.4081 272.563 62.8186 272.811 63.2256C272.93 63.4205 272.869 63.6754 272.674 63.7949C272.606 63.8361 272.532 63.8556 272.459 63.8556H272.459ZM273.889 66.3327C273.745 66.3327 273.602 66.2551 273.528 66.1175C273.301 65.7022 273.067 65.2856 272.833 64.879C272.717 64.6812 272.785 64.4281 272.983 64.3135C273.18 64.1988 273.434 64.2665 273.547 64.4643C273.786 64.8768 274.022 65.2991 274.251 65.7202C274.362 65.9207 274.287 66.1721 274.087 66.2819C274.027 66.3166 273.957 66.3327 273.889 66.3327H273.889ZM275.201 68.8763C275.047 68.8763 274.9 68.7907 274.83 68.6434C274.625 68.2197 274.41 67.7921 274.193 67.3725C274.087 67.1694 274.169 66.9197 274.371 66.8149C274.572 66.7097 274.822 66.7898 274.926 66.9927C275.145 67.418 275.362 67.8519 275.57 68.2812C275.671 68.4868 275.587 68.7343 275.379 68.8344C275.321 68.863 275.261 68.8763 275.201 68.8763H275.201ZM276.387 71.4793C276.228 71.4793 276.076 71.3852 276.009 71.2285C275.821 70.7927 275.628 70.3556 275.432 69.9289C275.338 69.7212 275.43 69.4756 275.637 69.3802C275.845 69.2854 276.088 69.3766 276.185 69.5845C276.383 70.017 276.578 70.4602 276.768 70.9019C276.858 71.1117 276.761 71.3552 276.551 71.4454C276.498 71.4684 276.443 71.4793 276.387 71.4793ZM277.453 74.1356C277.287 74.1356 277.13 74.0333 277.067 73.8672C276.901 73.4256 276.73 72.9797 276.554 72.5416C276.467 72.3298 276.571 72.0887 276.78 72.0033C276.993 71.9181 277.234 72.0207 277.318 72.2328C277.497 72.6765 277.673 73.1283 277.841 73.5759C277.921 73.79 277.812 74.0286 277.598 74.109C277.552 74.127 277.501 74.1355 277.453 74.1355L277.453 74.1356ZM278.396 76.8386C278.222 76.8386 278.061 76.7275 278.005 76.5525C277.858 76.1032 277.706 75.6502 277.552 75.2043C277.475 74.9879 277.588 74.7526 277.805 74.6768C278.02 74.6011 278.256 74.7148 278.331 74.9313C278.488 75.3818 278.642 75.8418 278.789 76.2959C278.859 76.5135 278.741 76.7473 278.526 76.8174C278.483 76.8315 278.439 76.8386 278.396 76.8386H278.396ZM279.218 79.5809C279.037 79.5809 278.871 79.4603 278.82 79.2769C278.695 78.8206 278.562 78.3604 278.427 77.9101C278.362 77.6912 278.485 77.4606 278.705 77.3942C278.922 77.3283 279.153 77.4523 279.218 77.6724C279.356 78.1287 279.491 78.5947 279.616 79.0571C279.676 79.2769 279.549 79.5052 279.329 79.5656C279.291 79.576 279.254 79.5808 279.218 79.5808L279.218 79.5809ZM279.92 82.3576C279.732 82.3576 279.56 82.2276 279.517 82.036C279.411 81.576 279.3 81.11 279.184 80.6522C279.127 80.4311 279.262 80.2065 279.483 80.1497C279.705 80.0941 279.93 80.2278 279.983 80.4501C280.101 80.9125 280.214 81.3843 280.323 81.8515C280.373 82.0737 280.233 82.2962 280.011 82.347C279.98 82.354 279.949 82.3576 279.92 82.3576ZM280.498 85.1626C280.303 85.1626 280.13 85.023 280.093 84.8234C280.007 84.361 279.915 83.8902 279.821 83.4265C279.773 83.2031 279.917 82.9845 280.142 82.9371C280.363 82.8909 280.583 83.0352 280.629 83.2588C280.725 83.7282 280.819 84.2047 280.904 84.6732C280.947 84.8976 280.797 85.114 280.573 85.1554C280.549 85.1602 280.523 85.1626 280.498 85.1626ZM280.957 87.9901C280.754 87.9901 280.576 87.8411 280.547 87.634C280.482 87.1659 280.412 86.6918 280.335 86.2269C280.298 86.001 280.453 85.7881 280.677 85.7514C280.901 85.7158 281.113 85.8672 281.149 86.0931C281.227 86.5649 281.299 87.044 281.366 87.5194C281.398 87.7452 281.239 87.9545 281.014 87.9863C280.995 87.9888 280.976 87.99 280.957 87.99L280.957 87.9901ZM281.289 90.8364C281.08 90.8364 280.899 90.6757 280.879 90.4617C280.836 89.9934 280.785 89.5168 280.73 89.0462C280.703 88.8192 280.865 88.6133 281.092 88.5873C281.318 88.5589 281.523 88.7222 281.55 88.9493C281.605 89.4258 281.656 89.9085 281.702 90.3836C281.723 90.6107 281.557 90.8129 281.33 90.8342C281.316 90.8365 281.304 90.8365 281.289 90.8365L281.289 90.8364ZM281.497 93.696C281.277 93.696 281.097 93.5245 281.084 93.3022C281.06 92.8338 281.034 92.3549 281 91.8808C280.983 91.6525 281.154 91.4551 281.381 91.4385C281.608 91.4221 281.805 91.5935 281.822 91.8216C281.856 92.3018 281.885 92.7867 281.909 93.2621C281.919 93.4902 281.745 93.6842 281.516 93.6961H281.497V93.696ZM281.559 96.5626H281.557C281.33 96.5614 281.147 96.3745 281.147 96.1461C281.149 96.0598 281.149 95.9714 281.149 95.8801C281.149 95.5029 281.145 95.1138 281.135 94.7247C281.13 94.4966 281.311 94.3073 281.538 94.3014C281.762 94.2954 281.955 94.4778 281.96 94.7057C281.969 95.1007 281.974 95.4958 281.974 95.8801C281.974 95.9723 281.974 96.0621 281.972 96.1509C281.972 96.378 281.788 96.5626 281.559 96.5626H281.559Z" fill="#FF9136"/>
<path d="M281.488 98.684C281.478 98.684 281.466 98.684 281.454 98.6828C281.225 98.664 281.058 98.4631 281.078 98.236C281.078 98.2336 281.097 97.9912 281.116 97.5453C281.126 97.3171 281.319 97.141 281.546 97.1492C281.775 97.1586 281.951 97.3526 281.941 97.5809C281.922 98.0457 281.9 98.295 281.9 98.3056C281.881 98.522 281.7 98.684 281.488 98.684H281.488Z" fill="#FF9136"/>
<path d="M105.819 62.6145C105.803 62.6145 105.787 62.6138 105.772 62.6118C105.537 62.5844 105.303 62.5581 105.07 62.5324C104.843 62.5073 104.681 62.3026 104.706 62.0755C104.73 61.8485 104.934 61.6842 105.161 61.7096C105.395 61.7355 105.63 61.7621 105.866 61.7896C106.092 61.816 106.255 62.0213 106.229 62.2484C106.204 62.4592 106.026 62.6145 105.818 62.6145H105.819Z" fill="#FF9136"/>
<path d="M90.9669 61.8506C90.7426 61.8506 90.5589 61.6707 90.5543 61.4448C90.5497 61.2162 90.7308 61.0274 90.9587 61.0227C91.4249 61.0133 91.9034 61.0075 92.3815 61.0054H92.3834C92.6106 61.0054 92.7951 61.1892 92.796 61.4172C92.7972 61.6457 92.6136 61.832 92.3854 61.8332C91.9115 61.8354 91.437 61.8411 90.9751 61.8504L90.9669 61.8506ZM95.2184 61.8595L95.2085 61.8593C94.7369 61.8484 94.2618 61.8405 93.797 61.8363C93.5691 61.8342 93.3859 61.647 93.388 61.4187C93.3902 61.1899 93.5755 61.0092 93.8047 61.0085C94.2735 61.0128 94.7522 61.0208 95.2278 61.0317C95.4557 61.037 95.6361 61.2266 95.6306 61.4551C95.6254 61.6806 95.4418 61.8594 95.2183 61.8594L95.2184 61.8595ZM88.1354 61.9488C87.9169 61.9488 87.7347 61.7769 87.7238 61.5556C87.7122 61.3273 87.8875 61.1331 88.1151 61.1215C88.588 61.0978 89.0664 61.0777 89.5367 61.0613C89.7634 61.0577 89.9556 61.2323 89.9635 61.4605C89.9712 61.689 89.7931 61.8806 89.5654 61.8886C89.0991 61.9048 88.6251 61.9249 88.1564 61.9483L88.1354 61.9488ZM98.0517 61.9635L98.0307 61.963C97.5622 61.9396 97.0878 61.9188 96.6201 61.9019C96.3924 61.8934 96.2146 61.7013 96.2228 61.4731C96.2312 61.2446 96.4237 61.0678 96.6503 61.0746C97.1216 61.0917 97.5999 61.1126 98.072 61.1362C98.2996 61.1476 98.4748 61.342 98.4636 61.5703C98.4525 61.7916 98.2701 61.9635 98.0517 61.9635ZM85.3088 62.1365C85.096 62.1365 84.9157 61.9727 84.8977 61.7568C84.879 61.5287 85.0481 61.3289 85.2752 61.3101C85.7423 61.2713 86.2199 61.2359 86.6944 61.2045C86.922 61.1873 87.1183 61.3618 87.1335 61.5899C87.1484 61.8181 86.9763 62.015 86.7489 62.0302C86.2787 62.0615 85.8059 62.0967 85.3429 62.135C85.3316 62.1359 85.32 62.1365 85.3087 62.1365H85.3088ZM100.881 62.1408L100.85 62.1398C100.385 62.1047 99.9113 62.0718 99.4408 62.0423C99.2132 62.0281 99.0403 61.8314 99.0541 61.6034C99.0695 61.3754 99.2651 61.2028 99.4927 61.2162C99.9667 61.2461 100.444 61.2789 100.911 61.3142C101.139 61.3314 101.31 61.53 101.292 61.7577C101.276 61.9753 101.095 62.1408 100.88 62.1408H100.881ZM103.706 62.3872C103.691 62.3872 103.677 62.3865 103.664 62.3853C103.191 62.3384 102.719 62.2943 102.258 62.254C102.03 62.2345 101.863 62.0337 101.883 61.8061C101.901 61.5782 102.102 61.4096 102.329 61.4297C102.793 61.4701 103.269 61.5143 103.746 61.5614C103.972 61.5838 104.137 61.7865 104.115 62.0141C104.095 62.2276 103.914 62.3872 103.706 62.3872H103.706ZM82.4897 62.4185C82.2832 62.4185 82.1048 62.2635 82.0801 62.0528C82.0539 61.8258 82.2157 61.6202 82.4421 61.5936C82.9102 61.5387 83.3862 61.4869 83.8575 61.4398C84.0834 61.4176 84.2864 61.5833 84.3091 61.8105C84.3315 62.0381 84.1661 62.241 83.9392 62.2635C83.4728 62.3102 83.0012 62.3614 82.538 62.4158C82.5219 62.4175 82.5055 62.4185 82.4896 62.4185H82.4897ZM79.6825 62.7996C79.4823 62.7996 79.3066 62.6532 79.2752 62.4488C79.2403 62.2229 79.395 62.0115 79.6201 61.9766C80.0858 61.9046 80.5601 61.8359 81.0295 61.7723C81.2555 61.7418 81.4634 61.9004 81.4938 62.1268C81.5244 62.3535 81.366 62.5619 81.1402 62.5927C80.6756 62.6558 80.2066 62.7237 79.7457 62.7949C79.7244 62.7982 79.7033 62.7997 79.6824 62.7997L79.6825 62.7996ZM76.8916 63.2849C76.6977 63.2849 76.5248 63.1473 76.4867 62.9495C76.4434 62.7251 76.5899 62.508 76.8137 62.4647C77.2762 62.3749 77.7475 62.2884 78.2146 62.2073C78.4394 62.1679 78.653 62.3193 78.6919 62.5442C78.7307 62.7696 78.5802 62.9838 78.3556 63.0228C77.8937 63.103 77.4277 63.1887 76.9702 63.2775C76.9438 63.2826 76.9174 63.2849 76.8916 63.2849ZM74.1216 63.8793C73.9345 63.8793 73.7652 63.7507 73.7204 63.5599C73.6684 63.3375 73.8061 63.1147 74.0279 63.0624C74.4866 62.9544 74.954 62.8489 75.418 62.7496C75.6406 62.7019 75.8602 62.8444 75.9078 63.0678C75.9555 63.2912 75.8134 63.5113 75.5905 63.5589C75.1323 63.6573 74.67 63.7614 74.2168 63.8683C74.1849 63.8757 74.1533 63.8793 74.1217 63.8793H74.1216ZM71.3788 64.5874C71.1982 64.5874 71.0325 64.468 70.9815 64.2851C70.9202 64.0651 71.0483 63.8365 71.2676 63.7749C71.7217 63.6475 72.1849 63.5226 72.6441 63.4042C72.8647 63.3474 73.0896 63.4805 73.1465 63.7019C73.2032 63.9234 73.0703 64.1488 72.8496 64.2058C72.3959 64.3229 71.9387 64.4459 71.4904 64.572C71.4531 64.5826 71.4155 64.5874 71.3788 64.5874ZM68.6689 65.4133C68.4952 65.4133 68.3339 65.3025 68.2768 65.1282C68.2059 64.911 68.3238 64.6772 68.5404 64.6058C68.9915 64.4575 69.4487 64.3127 69.8996 64.1753C70.1177 64.1083 70.348 64.2321 70.4144 64.451C70.4807 64.6696 70.3575 64.9008 70.1393 64.9674C69.6944 65.1031 69.2427 65.2459 68.7974 65.3925C68.7547 65.4065 68.7115 65.4133 68.669 65.4133H68.6689ZM65.9988 66.3608C65.8322 66.3608 65.6756 66.2593 65.613 66.0941C65.532 65.8803 65.6388 65.6414 65.8519 65.5598C66.2915 65.3923 66.742 65.2266 67.1906 65.0672C67.4055 64.9911 67.6413 65.1043 67.7173 65.3197C67.7935 65.535 67.6806 65.7717 67.466 65.8479C67.0231 66.0049 66.579 66.1684 66.1452 66.3338C66.097 66.3521 66.0475 66.3608 65.9988 66.3608ZM63.3756 67.4326C63.2164 67.4326 63.0647 67.3395 62.997 67.1837C62.9058 66.9743 63.0016 66.7304 63.2107 66.6389C63.6446 66.4495 64.0869 66.2627 64.5247 66.0835C64.736 65.9968 64.9766 66.0989 65.0627 66.3108C65.1488 66.5223 65.0473 66.7639 64.8363 66.8503C64.4042 67.0265 63.9682 67.2109 63.5403 67.398C63.4865 67.4214 63.4308 67.4326 63.3756 67.4326ZM60.8076 68.6306C60.6556 68.6306 60.5094 68.5462 60.4374 68.4007C60.3361 68.1958 60.4196 67.9475 60.6237 67.846C61.045 67.6365 61.4779 67.428 61.91 67.2265C62.1166 67.1304 62.362 67.2201 62.4579 67.4274C62.5543 67.6346 62.4645 67.8805 62.2578 67.9773C61.8318 68.1759 61.4054 68.3811 60.9904 68.5877C60.9316 68.617 60.8689 68.6307 60.8075 68.6307L60.8076 68.6306ZM58.302 69.956C58.1576 69.956 58.0173 69.8798 57.9418 69.7443C57.8301 69.545 57.9011 69.2929 58.0999 69.1812C58.5121 68.9495 58.9337 68.7195 59.3535 68.4975C59.5551 68.3908 59.8046 68.4679 59.911 68.6703C60.0173 68.8725 59.9403 69.1227 59.7386 69.2294C59.325 69.4483 58.9095 69.6748 58.5033 69.9031C58.4395 69.9389 58.3702 69.9559 58.3019 69.9559L58.302 69.956ZM55.8671 71.4079C55.7304 71.4079 55.5964 71.3394 55.5181 71.2146C55.3964 71.0214 55.4542 70.7658 55.6468 70.6439C56.0436 70.3925 56.4533 70.1411 56.8643 69.8961C57.0598 69.7793 57.3132 69.8439 57.4296 70.0405C57.5461 70.2369 57.4818 70.491 57.2859 70.6078C56.8813 70.8488 56.4782 71.0968 56.0871 71.344C56.0189 71.3873 55.9426 71.4079 55.8671 71.4079V71.4079ZM53.5109 72.9849C53.3814 72.9849 53.2536 72.9237 53.1733 72.8095C53.0419 72.6226 53.0865 72.3644 53.2724 72.2328C53.6602 71.9583 54.0562 71.6857 54.4494 71.4229C54.6392 71.2957 54.8952 71.3472 55.0219 71.5372C55.1484 71.7276 55.097 71.9843 54.9076 72.1112C54.5203 72.3704 54.1302 72.6389 53.7485 72.909C53.6765 72.9602 53.5932 72.9849 53.5111 72.9849H53.5109ZM51.2403 74.6832C51.1182 74.6832 50.9974 74.63 50.9159 74.5258C50.7746 74.3463 50.8054 74.0861 50.9846 73.9446C51.3569 73.6504 51.7381 73.3574 52.1174 73.0735C52.2998 72.9366 52.5586 72.9747 52.6949 73.1578C52.8312 73.341 52.7937 73.6003 52.6107 73.7372C52.2375 74.0165 51.862 74.3053 51.4952 74.5945C51.4196 74.6547 51.3296 74.6833 51.2402 74.6833L51.2403 74.6832ZM49.0619 76.5009C48.9471 76.5009 48.8328 76.4534 48.7513 76.36C48.601 76.1874 48.618 75.926 48.7895 75.7758C49.1446 75.4636 49.5099 75.1501 49.8747 74.8464C50.0503 74.6996 50.3104 74.7234 50.4561 74.8996C50.602 75.0745 50.5779 75.3359 50.4028 75.4824C50.0432 75.7819 49.6836 76.0904 49.3336 76.3978C49.2553 76.4665 49.1583 76.5009 49.0619 76.5009ZM46.9812 78.4307C46.8739 78.4307 46.7664 78.3881 46.6856 78.3055C46.5265 78.141 46.5301 77.8798 46.6934 77.72C47.0338 77.3877 47.382 77.0554 47.7287 76.7337C47.896 76.5788 48.1572 76.5894 48.3118 76.7574C48.4666 76.924 48.4564 77.1867 48.2889 77.3417C47.9478 77.6586 47.6046 77.985 47.2692 78.3124C47.1889 78.3918 47.0852 78.4307 46.9813 78.4307H46.9812ZM45.0035 80.466C44.9034 80.466 44.8028 80.4292 44.7236 80.356C44.5562 80.2009 44.5461 79.9385 44.7009 79.7704C45.0235 79.4206 45.3544 79.0716 45.6837 78.7323C45.8428 78.5691 46.104 78.5657 46.2672 78.7253C46.4305 78.8849 46.4341 79.1463 46.2749 79.3106C45.9504 79.644 45.6244 79.9882 45.3066 80.3335C45.2253 80.4211 45.1146 80.466 45.0035 80.466ZM43.1323 82.6003C43.039 82.6003 42.9453 82.5696 42.868 82.5046C42.6929 82.358 42.6695 82.0965 42.8157 81.9215C43.1185 81.5573 43.431 81.192 43.7445 80.8335C43.8952 80.6621 44.1556 80.6457 44.3271 80.797C44.4983 80.9471 44.5151 81.2086 44.3645 81.38C44.0558 81.7336 43.7479 82.0931 43.4491 82.4526C43.3676 82.5495 43.2504 82.6003 43.1323 82.6003ZM41.3703 84.827C41.2838 84.827 41.1966 84.8001 41.122 84.7443C40.9402 84.606 40.9037 84.3471 41.0409 84.1637C41.3261 83.7852 41.6201 83.4034 41.9142 83.0319C42.056 82.8523 42.3154 82.8224 42.4942 82.9647C42.6725 83.1064 42.7027 83.3666 42.561 83.5463C42.2709 83.913 41.981 84.2891 41.6999 84.6627C41.6188 84.7702 41.4952 84.827 41.3702 84.827H41.3703ZM39.7186 87.1378C39.6388 87.1378 39.5577 87.1144 39.4867 87.0658C39.2984 86.9369 39.2496 86.6803 39.3779 86.4909C39.6466 86.0961 39.9216 85.701 40.1956 85.3178C40.3281 85.1324 40.5862 85.0897 40.7714 85.222C40.9563 85.3557 40.999 85.6135 40.8664 85.7992C40.5964 86.1775 40.3251 86.5666 40.0601 86.9569C39.9803 87.0751 39.8505 87.1377 39.7187 87.1377L39.7186 87.1378ZM38.1788 89.5254C38.105 89.5254 38.0304 89.5054 37.963 89.464C37.7688 89.3445 37.7083 89.0903 37.8274 88.8952C38.0773 88.4872 38.3332 88.0802 38.5886 87.6844C38.7123 87.4914 38.9676 87.4369 39.1593 87.5613C39.3509 87.6853 39.4056 87.9422 39.2816 88.1337C39.0296 88.5239 38.7772 88.926 38.5307 89.3279C38.4529 89.4558 38.3173 89.5255 38.1787 89.5255L38.1788 89.5254ZM36.7501 91.9814C36.6826 91.9814 36.6141 91.9651 36.5507 91.9297C36.3512 91.8197 36.2792 91.5676 36.3893 91.3679C36.6201 90.9493 36.8572 90.5305 37.0944 90.1227C37.2091 89.9251 37.4619 89.8589 37.6588 89.9735C37.8559 90.0895 37.9221 90.3426 37.8074 90.5401C37.5736 90.9419 37.3393 91.356 37.1115 91.7686C37.0363 91.9049 36.8952 91.9814 36.75 91.9814H36.7501ZM35.4324 94.5004C35.3707 94.5004 35.308 94.4861 35.2492 94.4568C35.0449 94.355 34.9618 94.1066 35.0633 93.9021C35.2753 93.4752 35.4935 93.046 35.7125 92.6271C35.8185 92.4249 36.0682 92.3471 36.2696 92.4535C36.4715 92.5599 36.5494 92.8095 36.4434 93.0116C36.2272 93.4254 36.0113 93.8488 35.8023 94.271C35.7301 94.4164 35.5841 94.5003 35.4324 94.5003V94.5004ZM34.2242 97.0737C34.168 97.0737 34.1111 97.0619 34.0563 97.0382C33.8482 96.9448 33.7546 96.7001 33.8473 96.4906C34.0407 96.0556 34.2405 95.6182 34.4414 95.1898C34.5386 94.9828 34.7842 94.8944 34.9907 94.9922C35.1968 95.0895 35.2853 95.3365 35.1882 95.5421C34.9898 95.9657 34.7923 96.3985 34.6013 96.8278C34.5328 96.9828 34.3821 97.0737 34.2242 97.0737ZM33.1244 99.6967C33.0738 99.6967 33.0222 99.6873 32.9723 99.6672C32.7603 99.5832 32.6567 99.3419 32.7408 99.1302C32.9156 98.688 33.0972 98.2421 33.2805 97.8045C33.369 97.5941 33.611 97.4946 33.8208 97.5835C34.031 97.672 34.1297 97.9145 34.0414 98.1261C33.8601 98.5578 33.6807 98.9977 33.5081 99.4352C33.4439 99.5972 33.2884 99.6966 33.1244 99.6966V99.6967ZM32.1317 102.362C32.0864 102.362 32.0404 102.354 31.9952 102.338C31.7802 102.263 31.6668 102.026 31.7422 101.811C31.8993 101.363 32.0625 100.91 32.2282 100.465C32.3079 100.251 32.5455 100.143 32.7591 100.222C32.9728 100.302 33.081 100.541 33.0014 100.755C32.8377 101.194 32.6759 101.642 32.521 102.084C32.4615 102.256 32.3021 102.362 32.1316 102.362H32.1317ZM31.2457 105.066C31.2054 105.066 31.1646 105.059 31.1244 105.048C30.9064 104.981 30.7842 104.749 30.851 104.53C30.9904 104.076 31.1357 103.617 31.2833 103.166C31.3544 102.949 31.5879 102.83 31.8041 102.901C32.0209 102.973 32.1386 103.208 32.0675 103.424C31.9216 103.87 31.7777 104.324 31.64 104.773C31.5855 104.951 31.4222 105.066 31.2458 105.066H31.2457ZM30.4659 107.803C30.4309 107.803 30.3955 107.798 30.3601 107.789C30.1397 107.731 30.0082 107.504 30.0668 107.283C30.1879 106.824 30.3155 106.359 30.4455 105.903C30.5082 105.683 30.7365 105.556 30.9559 105.619C31.1748 105.682 31.3016 105.91 31.2391 106.13C31.1104 106.582 30.9843 107.04 30.8647 107.495C30.8158 107.68 30.6486 107.803 30.4659 107.803ZM29.7939 110.57C29.764 110.57 29.7339 110.567 29.7037 110.56C29.4812 110.51 29.341 110.289 29.3904 110.065C29.493 109.604 29.6019 109.135 29.7148 108.671C29.7688 108.449 29.9923 108.313 30.2134 108.367C30.435 108.42 30.5708 108.645 30.5168 108.867C30.4054 109.326 30.2976 109.79 30.1961 110.246C30.1534 110.439 29.9829 110.57 29.7939 110.57ZM29.2333 113.364C29.2092 113.364 29.1846 113.361 29.16 113.358C28.9358 113.317 28.7864 113.102 28.8266 112.876C28.9101 112.411 29 111.937 29.0943 111.468C29.1391 111.244 29.3568 111.099 29.5802 111.144C29.8034 111.189 29.9481 111.408 29.9032 111.631C29.8101 112.096 29.7212 112.564 29.639 113.023C29.6032 113.223 29.4295 113.364 29.2333 113.364ZM28.7962 116.184C28.7784 116.184 28.7605 116.183 28.7424 116.18C28.5165 116.151 28.3571 115.944 28.3863 115.717C28.446 115.256 28.5145 114.777 28.5898 114.293C28.625 114.067 28.8365 113.912 29.0613 113.948C29.2864 113.983 29.4405 114.195 29.4053 114.421C29.3313 114.897 29.2639 115.369 29.2048 115.823C29.1775 116.031 29.0004 116.184 28.7961 116.184L28.7962 116.184Z" fill="#FF9136"/>
<path d="M28.5773 118.296L28.5525 118.294C28.3251 118.281 28.1515 118.085 28.1648 117.857C28.1655 117.846 28.1802 117.598 28.2251 117.134C28.2469 116.907 28.4491 116.74 28.6756 116.763C28.9023 116.785 29.0684 116.988 29.0466 117.215C29.0034 117.659 28.9889 117.903 28.9889 117.905C28.9757 118.125 28.7938 118.296 28.5773 118.296Z" fill="#FF9136"/>
<path d="M315.646 144H0.355139C0.159836 144 0 143.839 0 143.644C0 143.447 0.159836 143.288 0.355233 143.288H315.646C315.839 143.288 316 143.447 316 143.644C316 143.839 315.839 144 315.646 144Z" fill="#2E3552" fill-opacity="0.5"/>
</g>
<defs>
<linearGradient id="paint0_linear" x1="191.026" y1="22.8395" x2="267.715" y2="5.63547" gradientUnits="userSpaceOnUse">
<stop stop-color="#D25050"/>
<stop offset="1" stop-color="#B74C42"/>
</linearGradient>
<clipPath id="clip0">
<rect width="316" height="144" fill="white"/>
</clipPath>
</defs>
</svg>
