<svg width="177" height="177" viewBox="0 0 177 177" fill="none" xmlns="http://www.w3.org/2000/svg">
<g clip-path="url(#clip0)">
<path fill-rule="evenodd" clip-rule="evenodd" d="M87.6893 172.101C77.2049 172.101 68.7861 170.633 64.4252 169.818C47.5404 166.664 33.2875 164.439 21.0418 153.335C-6.7843 128.104 -5.43089 75.469 15.8316 42.8642C18.3527 38.9976 39.5829 7.41369 73.5056 2.96255C74.3355 2.85405 74.9543 2.79253 75.4966 2.73423C76.8222 2.59336 79.8893 2.30029 84.1584 2.30029C91.1055 2.30029 101.24 3.07589 112.253 6.54743C108.083 11.2188 104.322 17.8866 102.015 24.841C98.8762 24.284 95.6705 23.9327 92.4133 23.8064L91.087 19.1269C90.9537 18.6573 90.5434 18.4242 90.1333 18.4242C89.7155 18.4242 89.297 18.6671 89.1726 19.1496L87.9835 23.7707C70.0587 24.2031 53.9466 31.6999 42.5161 43.4941C36.2007 43.4941 27.2632 43.6349 19.6441 44.2784C18.3099 44.3911 17.2723 45.4884 17.2238 46.8317L16.9451 51.1815C16.3305 52.7059 15.7648 54.6209 15.4102 56.9746C15.7778 57.2492 16.149 57.5085 16.5237 57.7544L16.3101 61.0882C16.2422 62.9739 17.7278 64.5495 19.6074 64.5853L28.9669 64.7634C28.9359 64.846 28.905 64.9279 28.8743 65.0105C27.05 65.1212 25.2519 65.2486 23.5047 65.3965C21.7228 65.5476 20.3365 67.0131 20.272 68.8071L19.0513 87.8515C18.9607 90.3704 20.9451 92.4748 23.4562 92.5229L25.4023 92.56C28.708 124.039 56.1985 148.604 89.6212 148.604C102.766 148.604 115.212 144.638 125.686 137.902C128.097 142.214 131.457 145.564 135.274 146.702C134.697 147.86 134.106 148.972 133.505 150.028L134.145 150.395C134.779 149.284 135.399 148.113 136.005 146.891C136.079 146.907 136.155 146.923 136.231 146.937C136.891 147.067 137.56 147.13 138.241 147.13C149.059 147.13 161.921 131.226 164.28 116.117C166.34 102.928 158.94 99.6604 161.2 86.041C162.367 79.0045 165.18 74.8274 168.115 71.1229C173.815 98.6552 168.381 129.095 149.785 148.333C145.353 152.918 141.387 155.614 138.351 157.648C121.08 169.222 102.363 172.101 87.6894 172.101H87.6893ZM139.353 44.6382C138.03 43.248 136.639 41.9137 135.187 40.6411C135.992 39.3311 136.726 37.8528 137.318 36.1171C139.007 31.1623 139.067 25.4774 138.038 20.1082C138.622 20.5696 139.201 21.044 139.78 21.5298C141.127 22.6632 142.766 24.1189 144.572 25.9194C142.068 31.7825 140.387 39.0931 139.353 44.6382Z" fill="#EDF3FF"/>
<path d="M136.231 146.937C127.723 145.268 121.211 132.52 121.83 121.787C122.466 110.742 130.23 109.211 135.684 95.7726C141.883 80.5064 134.923 74.9458 138.122 52.2397C138.843 47.1163 143.02 17.4703 153.539 15.9353C163.265 14.5153 179.758 36.9297 176.606 55.5984C174.357 68.9101 163.775 70.5184 161.2 86.0408C158.94 99.6603 166.34 102.927 164.28 116.117C161.773 132.174 147.402 149.13 136.231 146.937V146.937Z" fill="#86B2EF"/>
<path fill-rule="evenodd" clip-rule="evenodd" d="M134.146 150.395L133.506 150.028C134.108 148.971 134.698 147.86 135.276 146.702C135.518 146.773 135.761 146.837 136.006 146.891C135.4 148.113 134.78 149.284 134.146 150.395H134.146Z" fill="url(#paint0_linear)"/>
<path d="M136.006 146.891C135.761 146.837 135.517 146.773 135.275 146.702C139.149 138.936 142.482 129.022 145.278 118.746C145.705 118.109 146.122 117.462 146.525 116.81L146.556 116.816C143.653 127.821 140.138 138.562 136.006 146.891V146.891ZM155.037 75.7711C154.917 75.0399 154.785 74.3125 154.64 73.5903C156.991 58.7678 158.138 47.9622 158.152 47.8232L158.886 47.9006C158.87 48.0467 157.613 59.8773 155.037 75.7711Z" fill="#D8E3FC"/>
<path d="M97.7653 113.875C83.3047 109.631 74.1664 86.9896 80.1042 77.8569C84.1162 71.6869 92.4092 75.6853 98.3146 68.9414C105.854 60.3307 96.7663 48.7503 100.454 30.6505C103.592 15.2488 115.202 -1.04673 124.086 0.0527095C133.387 1.20395 142.223 21.7288 137.319 36.1169C134.129 45.4735 126.791 47.3636 126.724 55.4883C126.646 64.9161 136.488 67.2487 138.272 76.0182C141.478 91.771 116.896 119.489 97.7653 113.875V113.875Z" fill="#588DDD"/>
<path fill-rule="evenodd" clip-rule="evenodd" d="M106.029 118.493C105.951 118.509 105.868 118.507 105.785 118.486C105.495 118.409 105.32 118.111 105.397 117.819C115.668 78.4262 112.522 35.7266 112.489 35.2991C112.466 34.9996 112.69 34.7357 112.99 34.713C113.289 34.6903 113.551 34.9138 113.574 35.215C113.607 35.644 116.767 78.5272 106.45 118.096C106.395 118.305 106.227 118.454 106.029 118.493Z" fill="url(#paint1_linear)"/>
<path d="M131.052 37.2986C130.905 37.1901 130.76 37.0832 130.613 36.9747C133.416 29.5961 135.054 20.7651 131.763 13.0189C129.23 7.05861 124.921 4.54403 124.878 4.51975C124.753 4.44688 124.709 4.2882 124.78 4.16352C124.828 4.07933 124.916 4.03076 125.006 4.03076C125.05 4.03076 125.094 4.04209 125.135 4.06475C125.318 4.17 129.64 6.6927 132.242 12.8148C134.3 17.6578 135.531 25.6307 131.052 37.2986V37.2986Z" fill="#BAD1FB"/>
<path d="M95.9625 110.972C95.8809 110.988 95.7934 110.965 95.7297 110.903C84.8605 100.236 80.101 91.2692 81.5823 84.2521C82.8995 78.0127 88.884 75.7091 88.944 75.6868C89.0792 75.6367 89.2279 75.7054 89.2782 75.8398C89.3288 75.9748 89.2603 76.1252 89.1258 76.1759C89.0684 76.1976 83.3435 78.4091 82.09 84.3667C80.6522 91.1969 85.3639 99.9992 96.0933 110.529C96.196 110.631 96.1979 110.796 96.0977 110.899C96.0595 110.938 96.0122 110.962 95.9625 110.972Z" fill="#F0F0F0"/>
<path fill-rule="evenodd" clip-rule="evenodd" d="M89.6212 148.604C56.1985 148.604 28.708 124.039 25.4023 92.5598L34.2581 92.7288C37.6009 119.484 61.1611 140.214 89.729 140.214C109.329 140.214 127.13 130.028 137.51 114.948L146.524 116.81C146.121 117.462 145.704 118.109 145.277 118.746C140.187 126.338 133.484 132.887 125.686 137.902C115.212 144.638 102.766 148.604 89.6212 148.604V148.604ZM149.054 112.341L142.27 106.565C145.296 99.9342 146.987 92.6738 146.987 85.1201C146.987 74.6774 143.757 65.0569 138.232 56.9609C135.773 53.2481 132.777 49.8752 129.351 46.9179C120.127 38.7561 108.021 33.4516 94.8369 32.3522L93.3964 27.2728C112.033 28.3188 129.425 37.1401 140.481 51.3177C140.569 51.4304 140.702 51.4892 140.837 51.4892C140.931 51.4892 141.026 51.4612 141.105 51.4027C141.302 51.2594 141.342 50.9886 141.194 50.7991C129.92 36.3419 112.158 27.378 93.1482 26.3952L92.4134 23.8061C95.6707 23.9324 98.8763 24.2838 102.015 24.8407C112.583 26.719 122.367 30.9532 130.612 36.9749C130.76 37.0834 130.905 37.1903 131.052 37.2988C132.48 38.361 133.858 39.475 135.187 40.6408C136.639 41.9135 138.03 43.2477 139.353 44.6379C146.976 52.6475 152.405 62.5497 154.639 73.5903C154.784 74.3124 154.916 75.0398 155.036 75.771C155.52 78.7604 155.77 81.8245 155.77 84.956C155.77 94.6861 153.342 103.993 149.054 112.341L149.054 112.341ZM28.8743 65.0102C28.905 64.9277 28.936 64.8457 28.9669 64.7632L32.2515 64.8258C31.1209 64.8815 29.9922 64.9424 28.8743 65.0102ZM51.2411 47.0025C51.0403 46.9914 50.8405 46.9812 50.6428 46.9723C50.6007 45.072 49.0659 43.5392 47.1622 43.5181C45.8927 43.5035 44.3273 43.4938 42.5551 43.4938C42.5423 43.4938 42.5289 43.4938 42.5162 43.4938C53.9467 31.6997 70.0588 24.2028 87.9835 23.7705L87.3208 26.3467C79.4773 26.6251 71.8872 28.3091 64.7259 31.358C64.5006 31.4552 64.3985 31.7094 64.4974 31.9264C64.5708 32.0883 64.7347 32.1854 64.9064 32.1854C64.9662 32.1854 65.0269 32.1725 65.0856 32.1482C72.0646 29.1737 79.4577 27.5206 87.0962 27.2178L85.7954 32.2713C72.4385 33.1699 60.3731 38.6088 51.2412 47.0025H51.2411Z" fill="#233863"/>
<path d="M150.704 70.9982C150.741 70.9982 150.78 70.9944 150.818 70.9841C151.057 70.9227 151.197 70.6871 151.134 70.4565C150.439 67.9338 149.553 65.4319 148.497 63.0193C148.401 62.8004 148.139 62.7004 147.913 62.7902C147.687 62.8836 147.58 63.1365 147.675 63.3561C148.716 65.7301 149.589 68.1939 150.273 70.6787C150.326 70.8714 150.507 70.9982 150.704 70.9982Z" fill="#BDD0FB"/>
<path d="M140.836 51.4889C140.93 51.4889 141.025 51.4609 141.104 51.4024C141.301 51.2591 141.341 50.9882 141.193 50.7988C129.233 35.4607 109.968 26.3042 89.6587 26.3042C80.9854 26.3042 72.5965 28.0059 64.7252 31.3577C64.5 31.4548 64.3978 31.709 64.4967 31.926C64.5956 32.1446 64.8591 32.2434 65.0849 32.1478C72.8422 28.8431 81.1104 27.1672 89.6587 27.1672C109.69 27.1672 128.688 36.1958 140.48 51.3174C140.569 51.4301 140.701 51.4889 140.836 51.4889Z" fill="#BDD0FB"/>
<path d="M33.8516 86.1771C33.8516 116.021 58.8689 140.214 89.7289 140.214C120.589 140.214 146.987 114.964 146.987 85.1201C146.987 55.2766 120.589 32.1401 89.7289 32.1401C58.8689 32.1401 33.8516 56.3336 33.8516 86.1771V86.1771Z" fill="#EDF3FF"/>
<path d="M33.8535 86.1771C33.8535 56.3336 58.8707 32.1401 89.7307 32.1401C106.441 32.1401 121.841 38.9262 132.453 49.8861L89.4092 84.5213L80.5605 139.486C54.0633 135.255 33.8535 113 33.8535 86.1771Z" fill="#BDD0FB"/>
<path d="M41.457 82.4207C41.457 109.354 64.5037 131.188 92.9325 131.188C121.362 131.188 145.682 108.4 145.682 81.4667C145.682 54.5329 121.362 33.6523 92.9325 33.6523C64.5037 33.6523 41.457 55.4869 41.457 82.4207Z" fill="#86B2EF"/>
<path fill-rule="evenodd" clip-rule="evenodd" d="M132.708 83.3746C132.847 85.668 134.882 87.4198 137.253 87.286C139.626 87.1521 141.437 85.1847 141.298 82.8912C141.161 80.5972 139.126 78.8462 136.753 78.9793C134.381 79.1132 132.571 81.0807 132.708 83.3746Z" fill="#03003F"/>
<path fill-rule="evenodd" clip-rule="evenodd" d="M98.1234 125.94C95.7859 126.352 94.2378 128.519 94.6645 130.78C95.0913 133.04 97.3324 134.538 99.6691 134.125C102.007 133.712 103.555 131.545 103.128 129.285C102.701 127.024 100.461 125.527 98.1234 125.94Z" fill="#03003F"/>
<path fill-rule="evenodd" clip-rule="evenodd" d="M81.3948 37.3717C79.0574 37.7846 77.5091 39.9527 77.936 42.213C78.3627 44.4726 80.6031 45.9702 82.9405 45.5573C85.278 45.1444 86.8268 42.9773 86.4001 40.7169C85.9726 38.4565 83.7321 36.9588 81.3948 37.3717Z" fill="#03003F"/>
<path d="M67.9527 130.572C67.8946 130.572 67.8378 130.564 67.7836 130.548C67.2114 130.383 67.1023 129.384 67.5394 128.318C67.9348 127.352 68.6422 126.663 69.1974 126.663C69.2553 126.663 69.3121 126.67 69.3663 126.686C69.9385 126.851 70.0476 127.85 69.6107 128.917C69.2151 129.882 68.507 130.572 67.9527 130.572Z" fill="#F1F5FE"/>
<path fill-rule="evenodd" clip-rule="evenodd" d="M104.928 44.311C104.491 45.3778 104.6 46.3765 105.172 46.5418C105.744 46.7076 106.562 45.9764 106.999 44.9103C107.436 43.8433 107.327 42.8442 106.756 42.6791C106.183 42.5139 105.366 43.2442 104.928 44.311Z" fill="#03003F"/>
<path fill-rule="evenodd" clip-rule="evenodd" d="M47.6627 114.598C47.3904 114.598 47.1658 114.527 47.0261 114.377C46.6261 113.949 47.0695 113.04 48.0155 112.348C48.6311 111.898 49.3086 111.65 49.8169 111.65C50.0894 111.65 50.3133 111.722 50.453 111.871C50.853 112.3 50.4103 113.208 49.4642 113.9C48.848 114.35 48.1712 114.598 47.6627 114.598Z" fill="url(#paint2_linear)"/>
<path fill-rule="evenodd" clip-rule="evenodd" d="M125.076 59.3282C124.129 60.0204 123.687 60.9283 124.087 61.3572C124.487 61.7856 125.578 61.5718 126.524 60.8804C127.471 60.1882 127.914 59.2797 127.514 58.8507C127.114 58.4223 126.022 58.6362 125.076 59.3282Z" fill="#03003F"/>
<path d="M63.3484 47.0145C62.6976 46.0553 61.79 45.5668 61.321 45.9242C60.8522 46.282 60.9995 47.3494 61.6503 48.3084C62.3009 49.2681 63.2087 49.7561 63.6775 49.3988C64.1464 49.0416 63.9991 47.9742 63.3484 47.0145Z" fill="#91B3FA"/>
<path fill-rule="evenodd" clip-rule="evenodd" d="M112.889 124.919C112.239 123.96 111.331 123.471 110.862 123.828C110.393 124.186 110.541 125.253 111.191 126.213C111.842 127.173 112.75 127.66 113.218 127.303C113.687 126.946 113.54 125.879 112.889 124.919Z" fill="#03003F"/>
<path fill-rule="evenodd" clip-rule="evenodd" d="M153.314 118.188C153.241 118.188 153.167 118.181 153.091 118.165L146.554 116.816L146.523 116.809L137.51 114.948L132.473 113.908L120.908 111.52C120.138 111.361 119.86 110.438 120.42 109.903L124.188 106.31C124.654 105.866 124.554 105.115 123.987 104.799L90.5333 86.1876C90.0671 85.9284 89.9006 85.3572 90.1582 84.9007C90.3368 84.5832 90.6763 84.4014 91.027 84.4014C91.1757 84.4014 91.3263 84.4339 91.4679 84.5026L126.027 101.17C126.171 101.24 126.321 101.272 126.467 101.272C126.998 101.272 127.475 100.852 127.457 100.285L127.321 95.9829C127.303 95.3978 127.795 94.9951 128.316 94.9951C128.54 94.9951 128.768 95.0701 128.964 95.2357L139.562 104.26L142.269 106.565L149.053 112.341L153.951 116.512C154.656 117.113 154.175 118.188 153.314 118.188V118.188ZM125.28 110.373C125.06 110.373 124.864 110.539 124.84 110.76C124.816 110.994 124.989 111.203 125.229 111.232C125.74 111.311 138.817 114.059 149.876 116.392C149.94 116.405 150.003 116.412 150.065 116.412C150.387 116.412 150.678 116.239 150.824 115.947C151 115.597 150.91 115.198 150.6 114.95L145.133 110.578C145.049 110.512 144.949 110.48 144.849 110.48C144.72 110.48 144.592 110.533 144.505 110.636C144.347 110.82 144.374 111.091 144.565 111.243L150.032 115.615C142.747 114.006 125.683 110.41 125.329 110.375C125.313 110.373 125.297 110.373 125.28 110.373Z" fill="#FA9746"/>
<path fill-rule="evenodd" clip-rule="evenodd" d="M150.065 116.413C150.003 116.413 149.94 116.405 149.876 116.392C138.817 114.06 125.74 111.311 125.229 111.232C124.989 111.204 124.816 110.995 124.84 110.76C124.864 110.539 125.06 110.373 125.28 110.373C125.297 110.373 125.313 110.374 125.329 110.376C125.683 110.41 142.747 114.006 150.032 115.615L144.565 111.244C144.374 111.091 144.347 110.821 144.505 110.637C144.592 110.534 144.72 110.48 144.849 110.48C144.949 110.48 145.049 110.513 145.133 110.579L150.6 114.95C150.91 115.198 151 115.597 150.824 115.947C150.678 116.239 150.387 116.413 150.065 116.413Z" fill="url(#paint3_linear)"/>
<path fill-rule="evenodd" clip-rule="evenodd" d="M88.8534 83.8029C88.8456 83.8029 88.8387 83.8029 88.8316 83.8029C88.2997 83.7919 87.8715 83.3759 87.8633 82.861L87.9322 50.1837C87.9231 49.633 87.4537 49.2405 86.9421 49.2405C86.7819 49.2405 86.6173 49.279 86.4616 49.3629L82.5741 51.4585C82.416 51.5436 82.2514 51.582 82.0918 51.582C81.4915 51.582 80.9672 51.0339 81.1324 50.3918L85.3031 34.185L85.795 32.2711L87.0958 27.2176L87.3204 26.3465L87.9832 23.7704L89.1723 19.1492C89.2967 18.6667 89.7152 18.4238 90.133 18.4238C90.5431 18.4238 90.9534 18.657 91.0867 19.1266L92.413 23.806L93.1478 26.3951L93.3959 27.2727L94.8365 32.352L95.2185 33.6976L99.7893 49.8181C99.9679 50.4494 99.4609 51.0287 98.8394 51.0287C98.7379 51.0287 98.634 51.0135 98.5289 50.9808L93.4968 49.398C93.394 49.366 93.2908 49.3506 93.1893 49.3506C92.679 49.3506 92.2266 49.7387 92.2024 50.2656L89.8408 82.8885C89.8178 83.4007 89.3809 83.8029 88.8533 83.8029H88.8534ZM90.1514 22.9267C92.0258 29.9233 96.5735 46.2275 96.7037 46.5483C96.7726 46.718 96.9402 46.8217 97.1184 46.8217C97.1732 46.8217 97.2281 46.812 97.2816 46.7923C97.5081 46.7065 97.6204 46.4612 97.5369 46.2416C97.3747 45.7685 93.8827 33.275 90.9368 22.7033C90.834 22.3358 90.5157 22.0929 90.1151 22.0929C90.1074 22.0929 90.0998 22.0929 90.0929 22.0929C89.6908 22.1026 89.365 22.3649 89.2794 22.7454L87.7817 29.4505C87.7299 29.6836 87.8823 29.9135 88.1229 29.9621C88.1548 29.9702 88.1867 29.9735 88.2185 29.9735C88.422 29.9735 88.607 29.8342 88.653 29.6318L90.1514 22.9267Z" fill="#FA9746"/>
<path fill-rule="evenodd" clip-rule="evenodd" d="M85.4238 84.6128C85.4238 87.0669 87.4805 89.0562 90.0182 89.0562C92.5559 89.0562 94.6125 87.0668 94.6125 84.6128C94.6125 82.1592 92.5559 80.1694 90.0182 80.1694C87.4805 80.1694 85.4238 82.1593 85.4238 84.6128Z" fill="#D57912"/>
<path fill-rule="evenodd" clip-rule="evenodd" d="M42.4662 170.271C45.4357 170.529 50.5896 170.947 54.6532 171.127C57.0959 171.235 58.5019 170.994 59.3119 170.669C59.3102 170.761 59.3076 170.847 59.3044 170.928C59.2852 171.357 58.9375 171.7 58.5056 171.724C50.8282 172.155 44.722 171.874 42.5479 171.74C42.0987 171.713 41.8308 171.223 42.0605 170.838C42.1752 170.646 42.3149 170.457 42.4662 170.271Z" fill="#233863"/>
<path fill-rule="evenodd" clip-rule="evenodd" d="M54.6538 171.127C50.5901 170.947 45.4363 170.529 42.4668 170.271C45.3866 166.676 54.6538 164.253 54.6538 164.253H57.2712C59.0715 166.858 59.3317 169.337 59.3125 170.67C58.5025 170.995 57.0965 171.235 54.6538 171.127H54.6538Z" fill="#03003F"/>
<path fill-rule="evenodd" clip-rule="evenodd" d="M57.7115 159.965L57.4666 164.83C57.4398 165.356 57.0468 165.799 56.5212 165.874C55.9981 165.949 55.2983 165.959 54.555 165.711C54.0983 165.558 53.7588 165.171 53.6748 164.7L52.8281 159.965H57.7115Z" fill="url(#paint4_linear)"/>
<path fill-rule="evenodd" clip-rule="evenodd" d="M88.0895 175.883C89.377 175.65 89.96 174.783 90.2044 173.855C90.2056 173.863 90.2077 173.872 90.2088 173.88C90.3984 174.858 89.9594 175.872 89.0809 176.355C88.0202 176.938 86.8591 177.038 85.9582 176.989C84.9918 176.938 84.1045 176.419 83.6171 175.588L83.6094 175.576C84.5798 176.198 85.9417 176.272 88.0895 175.883Z" fill="#233863"/>
<path fill-rule="evenodd" clip-rule="evenodd" d="M82.0167 161.464H84.1754C87.4634 161.376 89.5277 170.371 90.204 173.855C89.9596 174.783 89.3765 175.65 88.0891 175.883C85.9413 176.272 84.5793 176.198 83.6089 175.576C81.833 172.544 80.952 168.103 80.529 165.512C80.0474 162.565 82.0167 161.464 82.0167 161.464Z" fill="#03003F"/>
<path fill-rule="evenodd" clip-rule="evenodd" d="M41.7344 93.9332C41.7344 93.9332 52.4453 161.131 52.2691 161.5C52.2691 161.5 55.2273 162.85 58.4526 161.672C58.4526 161.672 57.4837 125.75 55.2139 111.977C55.2139 111.977 73.4945 144.084 79.2997 160.083C79.2997 160.083 82.3272 159.72 84.8337 158.064C84.8337 158.064 65.151 100.273 59.8995 92.5752L41.7344 93.9332L41.7344 93.9332Z" fill="#2B468B"/>
<path fill-rule="evenodd" clip-rule="evenodd" d="M47.6993 95.7999C45.9487 95.7999 44.4611 95.7372 43.3798 95.6707C42.9026 95.6417 42.5046 95.6116 42.1971 95.5862C41.7646 95.5502 41.4055 95.2397 41.3059 94.8196C41.1489 94.1564 40.9984 93.5008 40.8542 92.8541L60.4203 93.2273C60.4484 93.228 60.4771 93.228 60.5058 93.228C60.581 93.228 60.6557 93.226 60.7297 93.223C60.7725 93.3337 60.8176 93.4438 60.8636 93.5539L60.9344 93.7217C61.0742 94.05 60.8822 94.428 60.5326 94.5066C55.9585 95.5374 51.2781 95.7999 47.6993 95.7999L47.6993 95.7999ZM63.9224 66.2004C63.0729 65.1054 61.7528 64.3967 60.2639 64.3807C58.5696 64.3621 56.4785 64.3474 54.1117 64.3474C52.6477 64.3474 51.0784 64.3532 49.4294 64.3666C50.1699 63.7596 50.6433 62.8357 50.6433 61.7986V47.0528C50.6433 47.0253 50.6433 46.999 50.6426 46.9722C50.8404 46.9811 51.0401 46.9913 51.241 47.0023C53.07 47.0996 55.0137 47.2546 57.0131 47.4882C60.9165 47.9447 65.028 48.7047 68.8893 49.9366C67.5032 55.0412 65.539 60.1025 65.0166 65.2489C64.8648 64.9691 64.7084 64.688 64.5407 64.4031C64.3263 64.9839 64.1202 65.5838 63.9224 66.2004ZM16.5237 57.754C16.1489 57.5081 15.7777 57.2488 15.4102 56.9742C15.7648 54.6206 16.3304 52.7056 16.9451 51.1811L16.5237 57.754Z" fill="#D25050"/>
<path fill-rule="evenodd" clip-rule="evenodd" d="M57.6649 37.668C57.6649 37.668 58.454 46.0419 59.1487 48.5185C59.254 48.8943 59.0912 49.2907 58.7513 49.4853C57.5723 50.1615 54.7445 51.2646 50.8759 49.3618C50.2497 49.0538 49.8726 48.3982 49.902 47.704L50.2425 39.6126L57.6649 37.668Z" fill="url(#paint5_linear)"/>
<path fill-rule="evenodd" clip-rule="evenodd" d="M50.0729 26.957C50.0729 26.957 47.5492 32.7764 47.3803 35.8286C47.2105 38.884 46.5547 40.8642 50.0729 41.4795C53.591 42.0948 56.555 40.3364 58.1606 37.2939C58.1606 37.2939 60.6767 32.6064 60.112 30.686C59.5482 28.7673 50.0729 26.957 50.0729 26.957Z" fill="#FFB27E"/>
<path fill-rule="evenodd" clip-rule="evenodd" d="M56.9592 35.1065L56.7588 35.0174C56.5036 34.9057 56.3946 34.6013 56.5228 34.352C57.0191 33.3902 57.9862 31.1848 56.7366 30.6715C55.5595 30.1874 54.2856 29.9154 53.0755 29.5251C51.952 29.1657 49.7697 28.7868 49.184 27.5983C49.0143 27.2534 49.2 26.8486 49.3831 26.5102C49.725 25.8804 50.067 25.2489 50.4088 24.6174C50.698 24.0847 50.997 23.539 51.4577 23.1456C52.5121 22.2437 53.77 23.0354 54.9369 23.2508C59.2774 24.0555 62.1468 25.8188 62.2183 28.8289C62.2226 29.02 62.4256 29.1252 62.5882 29.0264C62.9091 28.8305 63.422 28.7382 64.1071 29.3163C65.2989 30.3234 64.8115 32.9319 62.1984 35.079C62.074 35.181 62.0753 35.3753 62.2094 35.4627C62.6834 35.772 63.3895 36.5087 61.5599 37.4916C59.6671 38.5052 58.2536 38.4226 57.7094 38.3336C57.574 38.3093 57.4867 38.1781 57.5161 38.0437L58.0972 35.398C58.1303 35.249 58.0162 35.1065 57.8638 35.1065H56.9592L56.9592 35.1065Z" fill="#03003F"/>
<path fill-rule="evenodd" clip-rule="evenodd" d="M47.9863 27.9465C52.1138 15.6649 69.2397 23.4079 63.5927 34.1091C57.6644 31.4132 50.7588 27.0964 47.9863 27.9465Z" fill="url(#paint6_linear)"/>
<path fill-rule="evenodd" clip-rule="evenodd" d="M60.5063 93.2283C60.4776 93.2283 60.4489 93.2283 60.4208 93.2277L40.8548 92.8545L34.2586 92.729L25.4028 92.5599L23.4566 92.5229C20.9455 92.4748 18.9611 90.3703 19.0518 87.8515L20.2724 68.8071C20.337 67.013 21.7233 65.5475 23.5052 65.3964C25.2524 65.2486 27.0504 65.1211 28.8748 65.0104C29.9926 64.9425 31.1213 64.8817 32.2519 64.826L38.2891 64.9413L37.1535 80.4456C37.1025 81.1493 37.6607 81.7358 38.3459 81.7358C38.3886 81.7358 38.4325 81.7332 38.4766 81.7287L43.7893 81.1539C44.3979 81.0878 44.8585 80.5724 44.8585 79.9584V65.0667L47.2794 65.1129C47.3004 65.1134 47.3222 65.1134 47.3431 65.1134C48.1335 65.1134 48.8608 64.8336 49.43 64.3669C51.0789 64.3535 52.6482 64.3477 54.1123 64.3477C56.479 64.3477 58.5702 64.3624 60.2645 64.381C61.7534 64.397 63.0734 65.1058 63.923 66.2007C64.5451 67.0015 64.9157 68.0093 64.9157 69.1029V88.8016C64.9157 91.1751 63.0566 93.1061 60.7303 93.2233C60.6562 93.2264 60.5815 93.2283 60.5063 93.2283Z" fill="#E79D44"/>
<path d="M60.4331 71.2343C60.4657 72.9105 60.4158 75.5701 60.3756 77.2879C60.3547 78.1817 59.5725 78.8629 58.6877 78.7593L52.3186 78.0101C51.4702 77.9102 50.8725 77.1254 50.9994 76.2776L51.7809 71.0436C51.8918 70.3002 52.5279 69.751 53.2768 69.751H58.9206C59.7429 69.751 60.4165 70.4092 60.4331 71.2343V71.2343Z" fill="white"/>
<path fill-rule="evenodd" clip-rule="evenodd" d="M38.3441 81.7359C37.6589 81.7359 37.1007 81.1495 37.1517 80.4458L38.2873 64.9414L44.8567 65.0669V79.9586C44.8567 80.5726 44.3961 81.0879 43.7876 81.154L38.4748 81.7288C38.4307 81.7333 38.3868 81.7359 38.3441 81.7359H38.3441Z" fill="#D57912"/>
<path fill-rule="evenodd" clip-rule="evenodd" d="M41.6105 78.4043C41.5939 78.6893 41.3585 78.9095 41.0772 78.9095C41.067 78.9095 41.0568 78.9088 41.0459 78.9082C40.7513 78.8915 40.526 78.6381 40.544 78.3423L41.3445 64.4986C41.7043 64.4897 42.0601 64.4821 42.4162 64.4736L41.6105 78.4043Z" fill="#D57912"/>
<path fill-rule="evenodd" clip-rule="evenodd" d="M57.4863 76.2308C57.5802 76.2308 57.6586 76.1578 57.6644 76.063L57.9399 71.7029C57.9464 71.6043 57.8717 71.5198 57.7735 71.5133C57.6702 71.505 57.591 71.5818 57.5845 71.6804L57.309 76.0405C57.3027 76.1391 57.3772 76.2237 57.4755 76.2301L57.4863 76.2308Z" fill="#D57912"/>
<path fill-rule="evenodd" clip-rule="evenodd" d="M56.9209 76.2309C57.0161 76.2309 57.0958 76.1546 57.099 76.0579L57.2431 71.6139C57.2463 71.5153 57.169 71.4327 57.0708 71.4295C56.9573 71.4238 56.8902 71.5038 56.8872 71.6024L56.7423 76.0458C56.7391 76.145 56.8163 76.2276 56.9146 76.2309H56.9209Z" fill="#D57912"/>
<path fill-rule="evenodd" clip-rule="evenodd" d="M56.1841 71.608H56.188H56.1841ZM56.1496 76.2299C56.0515 76.2254 55.9756 76.1415 55.9807 76.0436C56.0509 74.5505 56.1854 71.7033 56.188 71.606C56.1887 71.5087 56.2684 71.4292 56.366 71.4292C56.4642 71.4292 56.5439 71.5093 56.5439 71.608C56.5439 71.6815 56.3711 75.3297 56.336 76.0602C56.3315 76.1563 56.253 76.2306 56.158 76.2306L56.1496 76.2299Z" fill="#D57912"/>
<path fill-rule="evenodd" clip-rule="evenodd" d="M54.972 76.4094C55.1627 76.4094 55.3209 76.2577 55.3274 76.0642C55.4779 71.7593 55.4518 71.662 55.4345 71.598C55.3829 71.4065 55.1851 71.2944 54.9968 71.3469C54.8227 71.3943 54.7137 71.564 54.7372 71.7394C54.7487 71.9981 54.669 74.5027 54.6154 76.0395C54.609 76.2365 54.7627 76.4023 54.9592 76.4094H54.972Z" fill="#D57912"/>
<path fill-rule="evenodd" clip-rule="evenodd" d="M54.2001 76.2309C54.2983 76.2309 54.378 76.1507 54.378 76.0521V71.6913C54.378 71.5928 54.2983 71.5127 54.2001 71.5127C54.1012 71.5127 54.0215 71.5928 54.0215 71.6913V76.0521C54.0215 76.1507 54.1012 76.2309 54.2001 76.2309Z" fill="#D57912"/>
<path fill-rule="evenodd" clip-rule="evenodd" d="M53.5764 76.231C53.6735 76.231 53.7526 76.1535 53.7552 76.0562C53.7889 74.5414 53.8686 72.0668 53.9401 71.769C53.9714 71.7127 53.9707 71.6416 53.9331 71.5833C53.8796 71.5007 53.7692 71.4784 53.6868 71.5322C53.59 71.5961 53.4974 71.6563 53.3985 76.0479C53.3967 76.1465 53.4745 76.2285 53.5727 76.231H53.5764Z" fill="#D57912"/>
<path fill-rule="evenodd" clip-rule="evenodd" d="M58.4464 76.6278C58.6345 76.6278 58.7921 76.4799 58.8016 76.2884L59.0396 71.71C59.0498 71.5128 58.8986 71.345 58.7021 71.3348C58.5159 71.3214 58.338 71.4757 58.3277 71.6735L58.0903 76.2519C58.0802 76.4492 58.2307 76.6169 58.4272 76.6271C58.4337 76.6278 58.4399 76.6278 58.4464 76.6278Z" fill="#D57912"/>
<path fill-rule="evenodd" clip-rule="evenodd" d="M47.3434 65.1135C47.3224 65.1135 47.3006 65.1135 47.2797 65.1131L44.8587 65.0669L38.2893 64.9414L32.2521 64.8261L28.9676 64.7635L19.6081 64.5854C17.7285 64.5496 16.2429 62.974 16.3108 61.0882L16.5244 57.7545L16.9458 51.1816L17.2244 46.8318C17.273 45.4885 18.3105 44.3912 19.6447 44.2785C27.2639 43.635 36.2013 43.4941 42.5168 43.4941C42.5296 43.4941 42.543 43.4941 42.5557 43.4941C44.3279 43.4941 45.8933 43.5038 47.1628 43.5184C49.0665 43.5395 50.6013 45.0723 50.6434 46.9726C50.644 46.9995 50.644 47.0258 50.644 47.0533V61.7991C50.644 62.8362 50.1707 63.7601 49.4302 64.3671C48.861 64.8337 48.1337 65.1135 47.3433 65.1135H47.3434ZM35.6298 43.5508C34.0433 43.5783 32.3987 43.6172 30.7315 43.6706L29.8619 55.5443C29.8235 56.0713 30.2413 56.5098 30.7542 56.5098C30.7866 56.5098 30.8194 56.5079 30.8523 56.5046L34.8297 56.0739C35.2845 56.0245 35.6298 55.639 35.6298 55.1793V43.5508Z" fill="#E79D44"/>
<path fill-rule="evenodd" clip-rule="evenodd" d="M47.2894 48.6485C47.3136 49.9027 47.2766 51.894 47.2461 53.1801C47.2306 53.8492 46.6452 54.3589 45.9829 54.2815L41.2151 53.7206C40.5796 53.6456 40.1324 53.0579 40.2276 52.4235L40.8124 48.5051C40.8954 47.9494 41.3713 47.5376 41.9321 47.5376H46.1572C46.7726 47.5376 47.2773 48.0306 47.2894 48.6485Z" fill="#FEFEFE"/>
<path fill-rule="evenodd" clip-rule="evenodd" d="M30.7541 56.5093C30.2413 56.5093 29.8234 56.0708 29.8618 55.5438L30.7314 43.6701C32.3986 43.6167 34.0432 43.5778 35.6297 43.5503V55.1788C35.6297 55.6385 35.2845 56.024 34.8297 56.0734L30.8522 56.5041C30.8193 56.5074 30.7866 56.5093 30.7541 56.5093Z" fill="#D57912"/>
<path fill-rule="evenodd" clip-rule="evenodd" d="M33.1997 54.0159C33.1876 54.2297 33.0112 54.3944 32.8007 54.3944C32.7929 54.3944 32.785 54.3937 32.7773 54.3937C32.5566 54.3807 32.3882 54.1906 32.4011 53.9692L33.0009 43.6073C33.2697 43.5992 33.5365 43.5944 33.8032 43.5879L33.1997 54.0159Z" fill="#D57912"/>
<path fill-rule="evenodd" clip-rule="evenodd" d="M45.0843 52.389C45.1543 52.389 45.213 52.3346 45.2175 52.2635L45.4236 48.9996C45.4287 48.9253 45.3726 48.862 45.2992 48.8574C45.2221 48.851 45.162 48.9086 45.1575 48.9823L44.9515 52.2462C44.9463 52.3205 45.0025 52.3839 45.0759 52.3884L45.0843 52.389Z" fill="#D57912"/>
<path fill-rule="evenodd" clip-rule="evenodd" d="M44.6589 52.3891C44.7304 52.3891 44.7897 52.3321 44.7923 52.2591L44.9001 48.9329C44.9027 48.8588 44.8446 48.7972 44.7712 48.7947C44.6863 48.7903 44.636 48.8504 44.6334 48.924L44.5255 52.2508C44.5231 52.3245 44.5811 52.3865 44.6544 52.3891H44.6589Z" fill="#D57912"/>
<path fill-rule="evenodd" clip-rule="evenodd" d="M44.1095 48.9283H44.1121H44.1095ZM44.084 52.3882C44.0101 52.385 43.9533 52.3223 43.9572 52.2486C44.0101 51.1307 44.111 48.9994 44.1121 48.927C44.1127 48.854 44.1721 48.7944 44.2455 48.7944C44.3196 48.7944 44.3788 48.854 44.3788 48.9283C44.3788 48.9834 44.2492 51.714 44.2231 52.2608C44.22 52.3331 44.1606 52.3888 44.0898 52.3888L44.084 52.3882Z" fill="#D57912"/>
<path fill-rule="evenodd" clip-rule="evenodd" d="M43.2005 52.523C43.3434 52.523 43.4613 52.4092 43.4665 52.2644C43.5793 49.0414 43.5596 48.969 43.5468 48.9209C43.508 48.7775 43.3598 48.6936 43.2188 48.7328C43.0888 48.7685 43.0072 48.8953 43.0249 49.0266C43.0333 49.22 42.9739 51.0953 42.9338 52.2458C42.9286 52.3931 43.0435 52.5173 43.1909 52.5225L43.2005 52.523Z" fill="#D57912"/>
<path fill-rule="evenodd" clip-rule="evenodd" d="M42.6216 52.3887C42.6956 52.3887 42.755 52.3285 42.755 52.255V48.9902C42.755 48.9167 42.6956 48.8564 42.6216 48.8564C42.5477 48.8564 42.4883 48.9167 42.4883 48.9902V52.255C42.4883 52.3285 42.5477 52.3887 42.6216 52.3887Z" fill="#D57912"/>
<path fill-rule="evenodd" clip-rule="evenodd" d="M42.1569 52.3891C42.2296 52.3891 42.2888 52.3308 42.2901 52.2578C42.3156 51.124 42.3756 49.2717 42.4292 49.0489C42.4521 49.0066 42.4521 48.9535 42.4242 48.9099C42.3839 48.8479 42.3009 48.8312 42.2391 48.8715C42.167 48.9196 42.0975 48.9643 42.0235 52.2521C42.0223 52.3258 42.0803 52.3871 42.1537 52.3891H42.1569Z" fill="#D57912"/>
<path fill-rule="evenodd" clip-rule="evenodd" d="M45.8002 52.6859C45.9413 52.6859 46.0592 52.5752 46.0663 52.4317L46.2442 49.0044C46.252 48.8565 46.139 48.731 45.9916 48.7233C45.8519 48.7131 45.7192 48.829 45.7117 48.9768L45.5336 52.4042C45.526 52.5522 45.6389 52.6776 45.7862 52.6853L45.8002 52.6859Z" fill="#D57912"/>
<path fill-rule="evenodd" clip-rule="evenodd" d="M15.0055 52.0437C15.8183 51.8432 17.6442 49.3642 17.8385 50.2702C18.0326 51.1755 17.4819 52.3241 17.5637 52.7095C17.6454 53.0944 18.2581 55.252 17.7712 56.1574C17.4198 56.8104 16.73 58.865 16.3733 59.9584C16.2548 60.3215 16.1585 60.8004 15.7804 60.7575C15.4022 60.7152 15.1094 60.2044 15.0742 59.824C15.06 59.6717 14.1924 52.2435 15.0055 52.0437L15.0055 52.0437Z" fill="#FFB27E"/>
<path fill-rule="evenodd" clip-rule="evenodd" d="M73.2469 55.102C72.2458 52.7965 69.055 49.9896 68.8877 49.9365C67.5016 55.0412 65.0615 59.2574 64.5391 64.403C67.9596 70.7089 67.1757 78.1468 65.0392 81.7636C66.0898 83.3297 67.3185 85.4617 68.3826 88.1143C81.5361 80.2123 76.3293 62.2019 73.2469 55.1021V55.102Z" fill="#B74C42"/>
<path fill-rule="evenodd" clip-rule="evenodd" d="M56.3532 93.8325L44.9648 93.5835C44.9648 93.5835 54.8956 90.7662 55.5117 91.5334C55.5117 91.5334 61.6671 87.4741 65.0406 81.7637C66.0911 83.3297 67.3192 85.4618 68.384 88.1143C65.3602 89.8956 61.3883 92.9912 56.3532 93.8325H56.3532Z" fill="#FFB27E"/>
<path fill-rule="evenodd" clip-rule="evenodd" d="M56.6746 91.853C56.6746 91.853 56.91 96.4072 50.9537 95.7457C47.7161 95.3866 42.4902 92.3576 42.4902 92.3576C42.4902 92.3576 56.1119 92.321 56.6746 91.853Z" fill="#FFB27E"/>
</g>
<defs>
<linearGradient id="paint0_linear" x1="185.834" y1="199.793" x2="65.3138" y2="71.9618" gradientUnits="userSpaceOnUse">
<stop stop-color="#E9EFFE"/>
<stop offset="1" stop-color="#F2F6FD"/>
</linearGradient>
<linearGradient id="paint1_linear" x1="108.996" y1="34.71" x2="108.522" y2="118.525" gradientUnits="userSpaceOnUse">
<stop stop-color="#09005D"/>
<stop offset="1" stop-color="#1A0F91"/>
</linearGradient>
<linearGradient id="paint2_linear" x1="98.3934" y1="46.0463" x2="172.688" y2="-99.4914" gradientUnits="userSpaceOnUse">
<stop stop-color="#3E30CB"/>
<stop offset="1" stop-color="#1D129D"/>
</linearGradient>
<linearGradient id="paint3_linear" x1="257.579" y1="-9.45357" x2="105.588" y2="113.984" gradientUnits="userSpaceOnUse">
<stop stop-color="#FFE1E0"/>
<stop offset="1" stop-color="#FFD7D3"/>
</linearGradient>
<linearGradient id="paint4_linear" x1="57.7116" y1="162.924" x2="52.8286" y2="162.924" gradientUnits="userSpaceOnUse">
<stop stop-color="#FEBBBA"/>
<stop offset="1" stop-color="#FF928E"/>
</linearGradient>
<linearGradient id="paint5_linear" x1="56.3426" y1="55.3553" x2="53.8238" y2="42.8603" gradientUnits="userSpaceOnUse">
<stop stop-color="#FFB27E"/>
<stop offset="1" stop-color="#F29F73"/>
</linearGradient>
<linearGradient id="paint6_linear" x1="85.6641" y1="15.7008" x2="57.7153" y2="29.1846" gradientUnits="userSpaceOnUse">
<stop stop-color="#FF928E"/>
<stop offset="1" stop-color="#FE7062"/>
</linearGradient>
<clipPath id="clip0">
<rect width="177" height="177" fill="white"/>
</clipPath>
</defs>
</svg>
