<svg width="22" height="17" viewBox="0 0 22 17" fill="none" xmlns="http://www.w3.org/2000/svg">
<path d="M1.70898 0.687534C1.4935 0.687534 1.28683 0.773137 1.13446 0.92551C0.982087 1.07788 0.896484 1.28455 0.896484 1.50003C0.896484 1.71552 0.982087 1.92218 1.13446 2.07456C1.28683 2.22693 1.4935 2.31253 1.70898 2.31253H3.51273L5.64473 10.8438C5.82592 11.5669 6.47348 12.0625 7.21855 12.0625H17.3504C18.0841 12.0625 18.7073 11.575 18.8999 10.8682L21.0059 3.12503H19.3045L17.3496 10.4375H7.21773L5.08655 1.90628C4.99851 1.55628 4.79557 1.24595 4.51022 1.02498C4.22488 0.804006 3.87363 0.685182 3.51273 0.687534H1.70898ZM16.334 12.0625C14.9974 12.0625 13.8965 13.1635 13.8965 14.5C13.8965 15.8366 14.9974 16.9375 16.334 16.9375C17.6705 16.9375 18.7715 15.8366 18.7715 14.5C18.7715 13.1635 17.6705 12.0625 16.334 12.0625ZM9.02148 12.0625C7.68492 12.0625 6.58398 13.1635 6.58398 14.5C6.58398 15.8366 7.68492 16.9375 9.02148 16.9375C10.358 16.9375 11.459 15.8366 11.459 14.5C11.459 13.1635 10.358 12.0625 9.02148 12.0625ZM11.459 0.687534V4.75003H9.02148L12.2715 8.00003L15.5215 4.75003H13.084V0.687534H11.459ZM9.02148 13.6875C9.47973 13.6875 9.83398 14.0418 9.83398 14.5C9.83398 14.9583 9.47973 15.3125 9.02148 15.3125C8.56323 15.3125 8.20898 14.9583 8.20898 14.5C8.20898 14.0418 8.56323 13.6875 9.02148 13.6875ZM16.334 13.6875C16.7922 13.6875 17.1465 14.0418 17.1465 14.5C17.1465 14.9583 16.7922 15.3125 16.334 15.3125C15.8757 15.3125 15.5215 14.9583 15.5215 14.5C15.5215 14.0418 15.8757 13.6875 16.334 13.6875Z" fill="white"/>
</svg>
