<svg width="42" height="30" viewBox="0 0 42 30" fill="none" xmlns="http://www.w3.org/2000/svg">
<path d="M7.50713 7.66088L14.2111 9.53669L21.5796 4.34997L11.0048 4.64377C10.9013 4.64925 10.8009 4.68037 10.7134 4.73417L7.36722 6.59868C7.26313 6.65457 7.17874 6.73945 7.12496 6.84233C7.07119 6.94521 7.05049 7.06136 7.06556 7.17576C7.08063 7.29016 7.13077 7.39755 7.20949 7.48404C7.28821 7.57052 7.39189 7.63213 7.50713 7.66088Z" fill="#FF4E00"/>
<path d="M40.4683 1.85133L33.1231 0.314518C32.5054 0.18454 31.866 0.184879 31.2484 0.315512C30.6308 0.446145 30.0495 0.704015 29.5438 1.07162L7.35667 16.6996L2.0285 16.4736C1.72331 16.4635 1.42257 16.5467 1.16874 16.7112C0.914919 16.8757 0.720834 17.1134 0.613894 17.3906C0.506955 17.6679 0.492564 17.9706 0.572754 18.2562C0.652943 18.5418 0.823662 18.7957 1.0608 18.9822L6.24907 22.9711C6.33448 23.0379 6.43614 23.0823 6.54434 23.1001C6.65253 23.1179 6.76362 23.1085 6.86699 23.0728C8.34769 22.5191 13.8624 19.6828 20.3798 16.2137L21.6856 29.2201C21.6967 29.3327 21.7393 29.4403 21.8088 29.5312C21.8783 29.6221 21.9721 29.6929 22.0801 29.7359C22.1881 29.7789 22.3062 29.7926 22.4215 29.7753C22.5369 29.7581 22.6453 29.7107 22.7349 29.6382L25.6497 27.2877C25.8092 27.158 25.9165 26.978 25.9528 26.7792L28.716 11.7615C33.3796 9.25286 37.8333 6.82335 40.9696 5.10574C41.2951 4.93409 41.5582 4.66962 41.7234 4.34816C41.8886 4.02671 41.9479 3.6638 41.8932 3.30861C41.8385 2.95342 41.6724 2.62311 41.4175 2.36245C41.1627 2.10178 40.8313 1.92335 40.4683 1.85133Z" fill="#FF4E00"/>
</svg>
