<svg width="22" height="22" viewBox="0 0 22 22" fill="none" xmlns="http://www.w3.org/2000/svg">
<path d="M0.5 11C0.5 9.62112 0.77159 8.25574 1.29926 6.98182C1.82694 5.70791 2.60036 4.55039 3.57538 3.57538C4.55039 2.60036 5.70791 1.82694 6.98182 1.29927C8.25574 0.771591 9.62112 0.5 11 0.5C12.3789 0.5 13.7443 0.771591 15.0182 1.29927C16.2921 1.82694 17.4496 2.60036 18.4246 3.57538C19.3996 4.55039 20.1731 5.70791 20.7007 6.98182C21.2284 8.25574 21.5 9.62112 21.5 11C21.5 13.7848 20.3938 16.4555 18.4246 18.4246C16.4555 20.3938 13.7848 21.5 11 21.5C8.21523 21.5 5.54451 20.3938 3.57538 18.4246C1.60625 16.4555 0.5 13.7848 0.5 11ZM11 5.75C10.7679 5.75 10.5454 5.84219 10.3813 6.00628C10.2172 6.17038 10.125 6.39294 10.125 6.625V10.125H6.625C6.39294 10.125 6.17038 10.2172 6.00628 10.3813C5.84219 10.5454 5.75 10.7679 5.75 11C5.75 11.2321 5.84219 11.4546 6.00628 11.6187C6.17038 11.7828 6.39294 11.875 6.625 11.875H10.125V15.375C10.125 15.6071 10.2172 15.8296 10.3813 15.9937C10.5454 16.1578 10.7679 16.25 11 16.25C11.2321 16.25 11.4546 16.1578 11.6187 15.9937C11.7828 15.8296 11.875 15.6071 11.875 15.375V11.875H15.375C15.6071 11.875 15.8296 11.7828 15.9937 11.6187C16.1578 11.4546 16.25 11.2321 16.25 11C16.25 10.7679 16.1578 10.5454 15.9937 10.3813C15.8296 10.2172 15.6071 10.125 15.375 10.125H11.875V6.625C11.875 6.39294 11.7828 6.17038 11.6187 6.00628C11.4546 5.84219 11.2321 5.75 11 5.75Z" fill="#FFDCCC"/>
</svg>
