<svg width="375" height="260" viewBox="0 0 375 260" fill="none" xmlns="http://www.w3.org/2000/svg">
<g opacity="0.7">
<path opacity="0.05" d="M379.984 77.8373V333.412H-9.01562V248.655C-8.93889 248.596 -8.83956 248.519 -8.71803 248.426C-8.39276 248.175 -7.90848 247.802 -7.27277 247.314C-6.00135 246.339 -4.1242 244.905 -1.70194 243.069C3.1426 239.398 10.1675 234.122 18.8879 227.701C36.3289 214.861 60.5508 197.447 87.6745 179.153C141.942 142.55 207.759 102.468 254.13 88.3886C287.703 78.1949 319.277 75.5735 342.46 75.5016C354.051 75.4656 363.541 76.0669 370.132 76.6768C373.427 76.9818 375.997 77.2889 377.742 77.5195C378.615 77.6349 379.281 77.7311 379.728 77.7983C379.824 77.8127 379.909 77.8257 379.984 77.8373Z" fill="#144372" stroke="#144372"/>
<path opacity="0.05" d="M-12.4366 215.27C-12.4366 215.27 150.709 85.5789 260.357 56.1225C311.206 42.462 388.905 46.7603 388.905 46.7603" stroke="#144372" stroke-width="5"/>
<path opacity="0.05" d="M-14.0004 173.958C-14.0004 173.958 151.57 47.377 261.755 20.0006C312.854 7.30481 390.458 13.0726 390.458 13.0726" stroke="#144372" stroke-width="5"/>
</g>
</svg>
