<svg width="375" height="256" viewBox="0 0 375 256" fill="none" xmlns="http://www.w3.org/2000/svg">
<g opacity="0.7">
<path opacity="0.05" d="M0 72.5002C0 72.5002 23.3996 71.2631 39 70.0002C144 61.5001 190.5 59.1758 341.5 70.0002C354.724 70.9482 375 72.5002 375 72.5002V263H0V72.5002Z" fill="#144372"/>
<path opacity="0.05" d="M-9 46C-9 46 20.3429 41.5193 34.5 40.4996C152.5 31.9999 184 32.0002 291 39C317.591 40.7396 382.5 46 382.5 46" stroke="#144372" stroke-width="5"/>
<path opacity="0.05" d="M-9 15.0761C-9 15.0761 20.3429 10.5955 34.5 9.57575C152.5 1.07602 184 1.07633 291 8.07617C317.591 9.81575 382.5 15.0761 382.5 15.0761" stroke="#144372" stroke-width="5"/>
</g>
</svg>
