<svg width="25" height="24" viewBox="0 0 25 24" fill="none" xmlns="http://www.w3.org/2000/svg">
<path d="M21.869 11.58L12.869 2.58C12.509 2.22 12.009 2 11.459 2H4.45898C3.35898 2 2.45898 2.9 2.45898 4V11C2.45898 11.55 2.67898 12.05 3.04898 12.42L12.049 21.42C12.409 21.78 12.909 22 13.459 22C14.009 22 14.509 21.78 14.869 21.41L21.869 14.41C22.239 14.05 22.459 13.55 22.459 13C22.459 12.45 22.229 11.94 21.869 11.58ZM13.459 20.01L4.45898 11V4H11.459V3.99L20.459 12.99L13.459 20.01Z" fill="white"/>
<path d="M6.95898 8C7.78741 8 8.45898 7.32843 8.45898 6.5C8.45898 5.67157 7.78741 5 6.95898 5C6.13056 5 5.45898 5.67157 5.45898 6.5C5.45898 7.32843 6.13056 8 6.95898 8Z" fill="white"/>
</svg>
