<svg width="34" height="34" viewBox="0 0 34 34" fill="none" xmlns="http://www.w3.org/2000/svg">
<path d="M17 22.6667C18.5029 22.6667 19.9442 22.0696 21.0069 21.0069C22.0696 19.9442 22.6667 18.5029 22.6667 17C22.6667 15.4971 22.0696 14.0558 21.0069 12.9931C19.9442 11.9304 18.5029 11.3333 17 11.3333C15.4971 11.3333 14.0558 11.9304 12.9931 12.9931C11.9304 14.0558 11.3333 15.4971 11.3333 17C11.3333 18.5029 11.9304 19.9442 12.9931 21.0069C14.0558 22.0696 15.4971 22.6667 17 22.6667Z" fill="white"/>
<path fill-rule="evenodd" clip-rule="evenodd" d="M17 0C17.501 0 17.9814 0.199007 18.3356 0.553243C18.6899 0.907478 18.8889 1.38792 18.8889 1.88889V3.91C21.7146 4.31843 24.3323 5.63001 26.3512 7.64884C28.37 9.66767 29.6816 12.2854 30.09 15.1111H32.1111C32.6121 15.1111 33.0925 15.3101 33.4468 15.6644C33.801 16.0186 34 16.499 34 17C34 17.501 33.801 17.9814 33.4468 18.3356C33.0925 18.6899 32.6121 18.8889 32.1111 18.8889H30.09C29.6816 21.7146 28.37 24.3323 26.3512 26.3512C24.3323 28.37 21.7146 29.6816 18.8889 30.09V32.1111C18.8889 32.6121 18.6899 33.0925 18.3356 33.4468C17.9814 33.801 17.501 34 17 34C16.499 34 16.0186 33.801 15.6644 33.4468C15.3101 33.0925 15.1111 32.6121 15.1111 32.1111V30.09C12.2854 29.6816 9.66767 28.37 7.64884 26.3512C5.63001 24.3323 4.31843 21.7146 3.91 18.8889H1.88889C1.38792 18.8889 0.907478 18.6899 0.553243 18.3356C0.199007 17.9814 0 17.501 0 17C0 16.499 0.199007 16.0186 0.553243 15.6644C0.907478 15.3101 1.38792 15.1111 1.88889 15.1111H3.91C4.31872 12.2855 5.63039 9.66795 7.64917 7.64917C9.66795 5.63039 12.2855 4.31872 15.1111 3.91V1.88889C15.1111 1.38792 15.3101 0.907478 15.6644 0.553243C16.0186 0.199007 16.499 0 17 0ZM7.55556 17C7.55556 14.4952 8.55059 12.0929 10.3218 10.3218C12.0929 8.55059 14.4952 7.55556 17 7.55556C19.5048 7.55556 21.9071 8.55059 23.6782 10.3218C25.4494 12.0929 26.4444 14.4952 26.4444 17C26.4444 19.5048 25.4494 21.9071 23.6782 23.6782C21.9071 25.4494 19.5048 26.4444 17 26.4444C14.4952 26.4444 12.0929 25.4494 10.3218 23.6782C8.55059 21.9071 7.55556 19.5048 7.55556 17Z" fill="white"/>
</svg>
