<svg width="29" height="28" viewBox="0 0 29 28" fill="none" xmlns="http://www.w3.org/2000/svg">
<path d="M14.459 18.6667C15.6967 18.6667 16.8836 18.175 17.7588 17.2998C18.634 16.4247 19.1257 15.2377 19.1257 14C19.1257 12.7623 18.634 11.5753 17.7588 10.7002C16.8836 9.825 15.6967 9.33333 14.459 9.33333C13.2213 9.33333 12.0343 9.825 11.1592 10.7002C10.284 11.5753 9.79232 12.7623 9.79232 14C9.79232 15.2377 10.284 16.4247 11.1592 17.2998C12.0343 18.175 13.2213 18.6667 14.459 18.6667Z" fill="white"/>
<path fill-rule="evenodd" clip-rule="evenodd" d="M14.459 0C14.8715 0 15.2672 0.163888 15.5589 0.455612C15.8507 0.747335 16.0145 1.143 16.0145 1.55556V3.22C18.3416 3.55636 20.4974 4.63648 22.1599 6.29904C23.8225 7.96161 24.9026 10.1174 25.239 12.4444H26.9034C27.316 12.4444 27.7117 12.6083 28.0034 12.9001C28.2951 13.1918 28.459 13.5874 28.459 14C28.459 14.4126 28.2951 14.8082 28.0034 15.0999C27.7117 15.3917 27.316 15.5556 26.9034 15.5556H25.239C24.9026 17.8826 23.8225 20.0384 22.1599 21.701C20.4974 23.3635 18.3416 24.4436 16.0145 24.78V26.4444C16.0145 26.857 15.8507 27.2527 15.5589 27.5444C15.2672 27.8361 14.8715 28 14.459 28C14.0464 28 13.6508 27.8361 13.359 27.5444C13.0673 27.2527 12.9034 26.857 12.9034 26.4444V24.78C10.5764 24.4436 8.4206 23.3635 6.75803 21.701C5.09546 20.0384 4.01534 17.8826 3.67898 15.5556H2.01454C1.60198 15.5556 1.20632 15.3917 0.914596 15.0999C0.622873 14.8082 0.458984 14.4126 0.458984 14C0.458984 13.5874 0.622873 13.1918 0.914596 12.9001C1.20632 12.6083 1.60198 12.4444 2.01454 12.4444H3.67898C4.01558 10.1175 5.09578 7.96184 6.7583 6.29932C8.42082 4.63679 10.5765 3.5566 12.9034 3.22V1.55556C12.9034 1.143 13.0673 0.747335 13.359 0.455612C13.6508 0.163888 14.0464 0 14.459 0ZM6.68121 14C6.68121 11.9372 7.50065 9.9589 8.95926 8.50028C10.4179 7.04166 12.3962 6.22222 14.459 6.22222C16.5218 6.22222 18.5001 7.04166 19.9587 8.50028C21.4173 9.9589 22.2368 11.9372 22.2368 14C22.2368 16.0628 21.4173 18.0411 19.9587 19.4997C18.5001 20.9583 16.5218 21.7778 14.459 21.7778C12.3962 21.7778 10.4179 20.9583 8.95926 19.4997C7.50065 18.0411 6.68121 16.0628 6.68121 14Z" fill="white"/>
</svg>
