<svg width="31" height="28" viewBox="0 0 31 28" fill="none" xmlns="http://www.w3.org/2000/svg">
<path d="M29.626 12.7873L22.8268 7.32489V3.60453C22.863 2.85889 22.6017 2.12934 22.1002 1.57584C21.5987 1.02234 20.8979 0.690064 20.1514 0.651855H3.30116C2.56 0.697562 1.86671 1.03309 1.37148 1.58576C0.876254 2.13843 0.618973 2.86372 0.655375 3.60453V18.3679C0.641656 18.9541 0.803028 19.5312 1.11892 20.0255C1.43481 20.5198 1.89091 20.909 2.42909 21.1434C2.15687 21.8085 2.05078 22.5299 2.11997 23.2451C2.18915 23.9604 2.43154 24.6481 2.82621 25.2489C3.22088 25.8497 3.75598 26.3455 4.38535 26.6937C5.01471 27.0418 5.71943 27.2318 6.4387 27.2472C7.15797 27.2626 7.87019 27.1029 8.51391 26.782C9.15763 26.4611 9.7135 25.9886 10.1336 25.4053C10.5537 24.8219 10.8253 24.1452 10.9251 23.4336C11.0249 22.7219 10.9499 21.9967 10.7064 21.3205H20.1071C19.864 21.9895 19.7859 22.7071 19.8794 23.4127C19.9728 24.1182 20.2352 24.7908 20.6441 25.3736C21.0531 25.9564 21.5966 26.4322 22.2287 26.7606C22.8608 27.0891 23.5628 27.2606 24.2753 27.2606C24.9878 27.2606 25.6899 27.0891 26.322 26.7606C26.954 26.4322 27.4976 25.9564 27.9065 25.3736C28.3155 24.7908 28.5778 24.1182 28.6713 23.4127C28.7648 22.7071 28.6866 21.9895 28.4435 21.3205H28.7392C29.1312 21.3205 29.5071 21.165 29.7843 20.8881C30.0615 20.6113 30.2173 20.2358 30.2173 19.8442V13.9389C30.2127 13.7147 30.1571 13.4945 30.0547 13.2949C29.9523 13.0954 29.8057 12.9218 29.626 12.7873ZM27.2611 14.6475V18.3679H22.8268V11.1043L27.2611 14.6475ZM8.04585 22.7969C8.04585 23.0889 7.95916 23.3743 7.79674 23.6171C7.63433 23.8599 7.40348 24.0491 7.13339 24.1608C6.86331 24.2726 6.56611 24.3018 6.27939 24.2448C5.99267 24.1879 5.7293 24.0473 5.52258 23.8408C5.31587 23.6343 5.17509 23.3713 5.11806 23.0849C5.06103 22.7985 5.0903 22.5017 5.20217 22.2319C5.31404 21.9621 5.5035 21.7316 5.74657 21.5694C5.98964 21.4071 6.27541 21.3205 6.56775 21.3205C6.95977 21.3205 7.33573 21.4761 7.61292 21.753C7.89012 22.0298 8.04585 22.4053 8.04585 22.7969ZM25.783 22.7969C25.783 23.0889 25.6963 23.3743 25.5339 23.6171C25.3715 23.8599 25.1406 24.0491 24.8705 24.1608C24.6004 24.2726 24.3032 24.3018 24.0165 24.2448C23.7298 24.1879 23.4664 24.0473 23.2597 23.8408C23.053 23.6343 22.9122 23.3713 22.8552 23.0849C22.7982 22.7985 22.8274 22.5017 22.9393 22.2319C23.0512 21.9621 23.2406 21.7316 23.4837 21.5694C23.7268 21.4071 24.0125 21.3205 24.3049 21.3205C24.6969 21.3205 25.0729 21.4761 25.3501 21.753C25.6273 22.0298 25.783 22.4053 25.783 22.7969Z" fill="#FF4E00"/>
</svg>
