<svg width="24" height="23" viewBox="0 0 24 23" fill="none" xmlns="http://www.w3.org/2000/svg">
<path d="M21 5.46149H2.25V4.73072L18.75 3.44457V4.73072H21V2.53841C21 0.930714 19.6635 -0.197597 18.0315 0.0289425L2.97 2.12479C1.3365 2.35279 0 3.8538 0 5.46149V20.0769C0 20.8522 0.31607 21.5957 0.87868 22.1438C1.44129 22.692 2.20435 23 3 23H21C21.7956 23 22.5587 22.692 23.1213 22.1438C23.6839 21.5957 24 20.8522 24 20.0769V8.38458C24 7.60933 23.6839 6.86583 23.1213 6.31765C22.5587 5.76946 21.7956 5.46149 21 5.46149ZM18.75 15.7011C18.4544 15.701 18.1618 15.6441 17.8887 15.5338C17.6157 15.4235 17.3676 15.2619 17.1587 15.0582C16.9498 14.8545 16.7841 14.6127 16.671 14.3466C16.558 14.0805 16.4999 13.7953 16.5 13.5073C16.5001 13.2193 16.5584 12.9341 16.6716 12.6681C16.7848 12.4021 16.9507 12.1604 17.1598 11.9568C17.3688 11.7532 17.617 11.5917 17.8901 11.4816C18.1632 11.3715 18.4559 11.3149 18.7515 11.315C19.3484 11.3152 19.9208 11.5464 20.3428 11.9578C20.7648 12.3692 21.0017 12.9271 21.0015 13.5087C21.0013 14.0904 20.764 14.6481 20.3417 15.0592C19.9195 15.4704 19.3469 15.7013 18.75 15.7011Z" fill="white"/>
</svg>
